<svg xmlns="http://www.w3.org/2000/svg" viewBox="0 0 19.984 19.984">
  <defs>
    <style>
      .cls-1, .cls-4 {
        fill: #555555;
      }

      .cls-2 {
        fill: none;
      }

      .cls-3, .cls-4 {
        stroke: none;
      }
    </style>
  </defs>
  <g id="Group_142" data-name="Group 142" transform="translate(1294.984 -6326.016) rotate(180)">
    <g id="Group_76" data-name="Group 76" transform="translate(1277.855 -6339.148)">
      <path id="ico_menu" class="cls-1" d="M3,12.852h7.994V11.71H3ZM3,10h7.994V8.855H3ZM3,6V7.142h7.994V6Z" transform="translate(1.282 -6)"/>
      <path id="ico_up" class="cls-1" d="M0,2.569,2.569,0,5.139,2.569Z" transform="translate(0 6.281) rotate(-90)"/>
    </g>
    <g id="Path_92" data-name="Path 92" class="cls-2" transform="translate(1294.984 -6346) rotate(90)">
      <path class="cls-3" d="M9.992,0a10.078,10.078,0,0,1,9.8,8.012,9.305,9.305,0,0,1,.2,1.98A9.992,9.992,0,1,1,9.992,0Z"/>
      <path class="cls-4" d="M 9.9921875 17.98437690734863 C 14.39909744262695 17.98437690734863 17.98437690734863 14.39909744262695 17.98437690734863 9.9921875 C 17.98437690734863 9.305317878723145 17.9012279510498 8.715577125549316 17.8453369140625 8.486767768859863 L 17.84261703491211 8.475637435913086 L 17.84002685546875 8.46446704864502 C 17.4013671875 6.57492733001709 16.41425704956055 4.95571756362915 14.98539733886719 3.781887531280518 C 13.5664176940918 2.616167545318604 11.83978748321533 1.999997496604919 9.9921875 1.999997496604919 C 5.585277557373047 1.999997496604919 1.999997496604919 5.585277557373047 1.999997496604919 9.9921875 C 1.999997496604919 14.39909744262695 5.585277557373047 17.98437690734863 9.9921875 17.98437690734863 M 9.9921875 19.98437690734863 C 4.473657608032227 19.98437690734863 -2.499999936844688e-06 15.51071739196777 -2.499999936844688e-06 9.9921875 C -2.499999936844688e-06 4.473657608032227 4.473657608032227 -2.499999936844688e-06 9.9921875 -2.499999936844688e-06 C 14.72704792022705 -2.499999936844688e-06 18.69271659851074 3.293287515640259 19.78821754455566 8.012197494506836 C 19.89415740966797 8.445917129516602 19.98437690734863 9.208517074584961 19.98437690734863 9.9921875 C 19.98437690734863 15.51071739196777 15.51071739196777 19.98437690734863 9.9921875 19.98437690734863 Z"/>
    </g>
  </g>
</svg>
