<svg xmlns="http://www.w3.org/2000/svg" viewBox="0 0 25 25">
  <defs>
    <style>
      .cls-1, .cls-4 {
        fill: #555555;
      }

      .cls-2 {
        fill: none;
      }

      .cls-3, .cls-4 {
        stroke: none;
      }
    </style>
  </defs>
  <g id="Group_141" data-name="Group 141" transform="translate(-1326 6525)">
    <rect id="Rectangle_86" data-name="Rectangle 86" class="cls-1" width="13" height="2" transform="translate(1332 -6514)"/>
    <g id="Path_99" data-name="Path 99" class="cls-2" transform="translate(1351 -6525) rotate(90)">
      <path class="cls-3" d="M12.5,0A12.5,12.5,0,1,1,0,12.5,12.5,12.5,0,0,1,12.5,0Z"/>
      <path class="cls-4" d="M 12.5 23 C 18.28972053527832 23 23 18.28972053527832 23 12.5 C 23 6.710279941558838 18.28972053527832 2 12.5 2 C 6.710279941558838 2 2 6.710279941558838 2 12.5 C 2 18.28972053527832 6.710279941558838 23 12.5 23 M 12.5 25 C 5.596439838409424 25 -1.77635683940025e-15 19.40356063842773 -1.77635683940025e-15 12.5 C -1.77635683940025e-15 5.596439838409424 5.596439838409424 -1.77635683940025e-15 12.5 -1.77635683940025e-15 C 19.40356063842773 -1.77635683940025e-15 25 5.596439838409424 25 12.5 C 25 19.40356063842773 19.40356063842773 25 12.5 25 Z"/>
    </g>
  </g>
</svg>
