<svg xmlns="http://www.w3.org/2000/svg" viewBox="0 0 18.687 22.009">
  <defs>
  </defs>
  <path id="ico_eclaim" class="cls-1" d="M18.611,168.4H14.25a3.02,3.02,0,0,0-5.814,0H4.076A2.148,2.148,0,0,0,2,170.6v15.406a2.148,2.148,0,0,0,2.076,2.2H18.611a2.148,2.148,0,0,0,2.076-2.2V170.6A2.148,2.148,0,0,0,18.611,168.4Zm-7.267,0a1.152,1.152,0,0,1,1.038,1.1,1.072,1.072,0,0,1-1.038,1.1,1.011,1.011,0,0,1-1.038-1.1A1.074,1.074,0,0,1,11.343,168.4Zm-5.191,4.4H16.534V175H6.153Zm0,4.4H16.534v2.2H6.153Zm5.191,6.6H6.153v-2.2h5.191Zm2.6,2.091h-1.35v-1.431l4.049-4.292,1.35,1.431Zm5.087-5.392-.623.66-1.35-1.431.623-.66a.449.449,0,0,1,.519,0l.831.88A.321.321,0,0,1,19.026,180.506Z" transform="translate(-2 -166.2)"/>
</svg>
