<svg xmlns="http://www.w3.org/2000/svg" viewBox="0 0 17.143 20">
  <path id="file-excel-o" d="M144.384,4.241a2.6,2.6,0,0,1,.536.848,2.577,2.577,0,0,1,.223.982V18.929A1.067,1.067,0,0,1,144.071,20h-15A1.067,1.067,0,0,1,128,18.929V1.071a1.033,1.033,0,0,1,.313-.759A1.033,1.033,0,0,1,129.071,0h10a2.577,2.577,0,0,1,.982.223,2.6,2.6,0,0,1,.848.536Zm-4.955-2.723v4.2h4.2a1.219,1.219,0,0,0-.246-.458l-3.493-3.493A1.219,1.219,0,0,0,139.429,1.518Zm4.286,17.054V7.143h-4.643A1.067,1.067,0,0,1,138,6.071V1.429h-8.571V18.571ZM132.788,15.96v1.183h3.136V15.96h-.837l1.15-1.8a1.6,1.6,0,0,0,.112-.184q.056-.106.084-.151t.039-.045h.022a.385.385,0,0,0,.056.112.621.621,0,0,0,.05.084q.028.039.067.089l.073.095,1.194,1.8h-.848v1.183h3.248V15.96h-.759l-2.143-3.047,2.176-3.147h.748V8.571h-3.114V9.766h.826l-1.15,1.775q-.045.078-.112.184t-.1.151l-.022.033h-.022a.384.384,0,0,0-.056-.112,1.331,1.331,0,0,0-.19-.257l-1.183-1.775h.848V8.571h-3.237V9.766h.759l2.109,3.036-2.165,3.158Z" transform="translate(-128)"/>
</svg>
