<svg xmlns="http://www.w3.org/2000/svg" viewBox="0 0 17.143 20">
  <path id="file-zip-o" d="M135.143,4.286V2.857h-1.429V4.286Zm1.429,1.429V4.286h-1.429V5.714Zm-1.429,1.429V5.714h-1.429V7.143Zm1.429,1.429V7.143h-1.429V8.571Zm7.813-4.33a2.6,2.6,0,0,1,.536.848,2.577,2.577,0,0,1,.223.982V18.929A1.067,1.067,0,0,1,144.071,20h-15A1.067,1.067,0,0,1,128,18.929V1.071a1.033,1.033,0,0,1,.313-.759A1.033,1.033,0,0,1,129.071,0h10a2.577,2.577,0,0,1,.982.223,2.6,2.6,0,0,1,.848.536Zm-4.955-2.723v4.2h4.2a1.219,1.219,0,0,0-.246-.458l-3.493-3.493A1.219,1.219,0,0,0,139.429,1.518Zm4.286,17.054V7.143h-4.643A1.067,1.067,0,0,1,138,6.071V1.429h-1.429V2.857h-1.429V1.429h-5.714V18.571Zm-7-8.047,1.194,3.9A2.04,2.04,0,0,1,138,15a1.848,1.848,0,0,1-.809,1.535,3.752,3.752,0,0,1-4.1,0A1.848,1.848,0,0,1,132.286,15a2.04,2.04,0,0,1,.089-.58q.234-.7,1.339-4.42V8.571h1.429V10h.882a.7.7,0,0,1,.435.145A.711.711,0,0,1,136.717,10.525Zm-1.574,5.19a2.213,2.213,0,0,0,1.01-.212q.419-.212.419-.5t-.419-.5a2.511,2.511,0,0,0-2.02,0q-.419.212-.419.5t.419.5A2.213,2.213,0,0,0,135.143,15.714Z" transform="translate(-128)"/>
</svg>
