<svg xmlns="http://www.w3.org/2000/svg" viewBox="0 0 17.143 20">
  <path id="file-powerpoint-o" d="M144.384,4.241a2.6,2.6,0,0,1,.536.848,2.577,2.577,0,0,1,.223.982V18.929A1.067,1.067,0,0,1,144.071,20h-15A1.067,1.067,0,0,1,128,18.929V1.071a1.033,1.033,0,0,1,.313-.759A1.033,1.033,0,0,1,129.071,0h10a2.577,2.577,0,0,1,.982.223,2.6,2.6,0,0,1,.848.536Zm-4.955-2.723v4.2h4.2a1.219,1.219,0,0,0-.246-.458l-3.493-3.493A1.219,1.219,0,0,0,139.429,1.518Zm4.286,17.054V7.143h-4.643A1.067,1.067,0,0,1,138,6.071V1.429h-8.571V18.571ZM132.643,15.96v1.183h3.65V15.96h-1.038V14.1h1.529a4.073,4.073,0,0,0,1.317-.167,2.215,2.215,0,0,0,1.189-.971,3.039,3.039,0,0,0,.441-1.629,2.937,2.937,0,0,0-.413-1.574,2.4,2.4,0,0,0-1.116-.971,4.039,4.039,0,0,0-1.451-.212h-4.107V9.766h1.027V15.96Zm3.94-3.125h-1.328V9.844h1.339a1.84,1.84,0,0,1,.926.2,1.365,1.365,0,0,1,.625,1.283,1.352,1.352,0,0,1-.692,1.339A2,2,0,0,1,136.583,12.835Z" transform="translate(-128)"/>
</svg>
