<svg xmlns="http://www.w3.org/2000/svg" viewBox="0 0 17.143 20">
  <path  id="file-word-o" d="M144.384,4.241a2.6,2.6,0,0,1,.536.848,2.577,2.577,0,0,1,.223.982V18.929A1.067,1.067,0,0,1,144.071,20h-15A1.067,1.067,0,0,1,128,18.929V1.071a1.033,1.033,0,0,1,.313-.759A1.033,1.033,0,0,1,129.071,0h10a2.577,2.577,0,0,1,.982.223,2.6,2.6,0,0,1,.848.536Zm-4.955-2.723v4.2h4.2a1.219,1.219,0,0,0-.246-.458l-3.493-3.493A1.219,1.219,0,0,0,139.429,1.518Zm4.286,17.054V7.143h-4.643A1.067,1.067,0,0,1,138,6.071V1.429h-8.571V18.571Zm-13.114-10V9.766h.781l1.83,7.377h1.775l1.429-5.413a3.036,3.036,0,0,0,.134-.781h.045l.033.268a2.159,2.159,0,0,1,.039.223,1.8,1.8,0,0,0,.061.29l1.429,5.413h1.775l1.83-7.377h.781V8.571h-3.348V9.766h1l-1.1,4.888a3.118,3.118,0,0,0-.078.513l-.022.234h-.045l-.033-.234q-.011-.056-.045-.234t-.056-.279l-1.607-6.083h-1.272l-1.607,6.083q-.022.1-.05.273t-.039.24l-.045.234h-.045l-.022-.234a3.117,3.117,0,0,0-.078-.513l-1.1-4.888h1V8.571Z" transform="translate(-128)"/>
</svg>
