<svg xmlns="http://www.w3.org/2000/svg" viewBox="0 0 17.143 20">
  <path id="file-video-o" d="M144.384,4.241a2.6,2.6,0,0,1,.536.848,2.577,2.577,0,0,1,.223.982V18.929A1.067,1.067,0,0,1,144.071,20h-15A1.067,1.067,0,0,1,128,18.929V1.071a1.033,1.033,0,0,1,.313-.759A1.033,1.033,0,0,1,129.071,0h10a2.577,2.577,0,0,1,.982.223,2.6,2.6,0,0,1,.848.536Zm-4.955-2.723v4.2h4.2a1.219,1.219,0,0,0-.246-.458l-3.493-3.493A1.219,1.219,0,0,0,139.429,1.518Zm4.286,17.054V7.143h-4.643A1.067,1.067,0,0,1,138,6.071V1.429h-8.571V18.571Zm-7.143-10A1.448,1.448,0,0,1,138,10v4.286a1.448,1.448,0,0,1-1.429,1.429h-4.286a1.448,1.448,0,0,1-1.429-1.429V10a1.448,1.448,0,0,1,1.429-1.429Zm5.491.022a.331.331,0,0,1,.223.335v6.429a.331.331,0,0,1-.223.335.61.61,0,0,1-.134.022.348.348,0,0,1-.257-.1l-2.958-2.969v-1l2.958-2.969a.348.348,0,0,1,.257-.1A.61.61,0,0,1,142.062,8.594Z" transform="translate(-128)"/>
</svg>
