<svg xmlns="http://www.w3.org/2000/svg" viewBox="0 0 13.333 18.428">
  <defs>
  </defs>
  <g id="Group_148" data-name="Group 148" transform="translate(-513.334 -80.667)">
    <g id="icon" transform="translate(513.333 80.667)">
      <path id="Path_84" data-name="Path 84" class="cls-1" d="M233.507,772.031v-3.455a.555.555,0,0,0-.576-.576h-3.455a.554.554,0,0,0-.576.576v3.455a.554.554,0,0,0,.576.576h3.455a.554.554,0,0,0,.576-.576Z" transform="translate(-224.781 -754.179)"/>
      <path id="Path_85" data-name="Path 85" class="cls-1" d="M13.322,5.759a4.828,4.828,0,0,0-1-2.933A6.8,6.8,0,0,0,9.831.738,6.847,6.847,0,0,0,6.771,0,7.349,7.349,0,0,0,.095,3.833a.515.515,0,0,0,.144.756l2.375,1.8a.509.509,0,0,0,.342.108.53.53,0,0,0,.45-.216A8.976,8.976,0,0,1,4.954,4.625,2.62,2.62,0,0,1,6.5,4.193a2.639,2.639,0,0,1,1.539.468,1.31,1.31,0,0,1,.675,1.062,1.617,1.617,0,0,1-.36,1.1,3.651,3.651,0,0,1-1.224.81A6.172,6.172,0,0,0,5.053,9.187a3.329,3.329,0,0,0-.945,2.258v.648a.554.554,0,0,0,.576.576H8.139a.554.554,0,0,0,.576-.576A1.714,1.714,0,0,1,9.1,11.2a3.046,3.046,0,0,1,.981-.891c.383-.216.678-.387.882-.513a7.657,7.657,0,0,0,.828-.63,4.148,4.148,0,0,0,.8-.864,4.752,4.752,0,0,0,.5-1.089A4.551,4.551,0,0,0,13.322,5.759Z" transform="translate(0.012)"/>
    </g>
  </g>
</svg>
