<svg xmlns="http://www.w3.org/2000/svg" viewBox="0 0 18.687 22.009">
  <defs>
  </defs>
  <path id="ico_submissionhistory" class="cls-1" d="M18.611,30.2H14.25a3.02,3.02,0,0,0-5.814,0H4.076A2.148,2.148,0,0,0,2,32.4V47.808a2.148,2.148,0,0,0,2.076,2.2H18.611a2.148,2.148,0,0,0,2.076-2.2V32.4A2.148,2.148,0,0,0,18.611,30.2Zm-7.267,0a1.152,1.152,0,0,1,1.038,1.1,1.04,1.04,0,1,1-2.076,0A1.152,1.152,0,0,1,11.343,30.2Zm0,16.067A5.627,5.627,0,0,1,7.5,44.617l.831-.88a4.108,4.108,0,0,0,3.011,1.321,4.519,4.519,0,0,0,0-9.024,4.408,4.408,0,0,0-4.256,4.512H8.852L6.464,43.076v-.11L4.076,40.545H5.841a5.529,5.529,0,0,1,5.4-5.722,5.529,5.529,0,0,1,5.4,5.722A5.383,5.383,0,0,1,11.343,46.267Zm2.388-4.182-.415.77-2.6-1.651V38.014h.934v2.751Z" transform="translate(-2 -28)"/>
</svg>
