<svg xmlns="http://www.w3.org/2000/svg" viewBox="0 0 125 29.916">
  <defs>
    <style>
      .cls-1 {
        fill: #fff;
      }
    </style>
  </defs>
  <g id="LOGO_PRUDENTIAL_HORIZONTAL" data-name="LOGO_PRUDENTIAL HORIZONTAL" transform="translate(0 -0.011)">
    <path id="Path_29" data-name="Path 29" class="cls-1" d="M36.186,13.667h4.3V11.353h-4.3Zm6.447,1.984v.992H39.988a7.018,7.018,0,0,0,3.472,3.472l-.827.827A7.43,7.43,0,0,1,39,17.139h0v4.629H38V17.139h0a6.3,6.3,0,0,1-1.322,2.149A8.766,8.766,0,0,1,34.7,20.941l-.992-.827a8.422,8.422,0,0,0,3.306-3.472H34.2v-.992h3.637V14.494h-2.81V10.2h6.447v4.3H38.831v1.157Zm-11.406.827-.827-.661A10.451,10.451,0,0,0,33.541,9.7l.992.5a5.715,5.715,0,0,1-.5,1.984l-.331.992v8.761h-.992V14.99h0l-1.488,1.488" transform="translate(19.854 6.328)"/>
    <path id="Path_30" data-name="Path 30" class="cls-1" d="M49.241,17.966H47.918v1.653h1.322ZM47.753,20.61V21.6h-.992V17.139h3.306V20.61Zm2.48-4.463H46.6v-.992h3.637ZM46.6,13.337h3.637v.992H46.6Zm8.6-2.81.661-.661a3.466,3.466,0,0,1,1.322,1.818l-.661.331h.992v.992H55.192l.331,3.472h0a8.752,8.752,0,0,0,.661-2.645l.992.5a11.458,11.458,0,0,1-1.157,3.8,18.539,18.539,0,0,0,.827,2.149,9.305,9.305,0,0,0,.331-1.653l.992.5c-.165.661-.165,1.157-.331,1.653s-.331.661-.331.827a1.25,1.25,0,0,1-.661.165.607.607,0,0,1-.5-.165,2.691,2.691,0,0,1-.5-.992,6.805,6.805,0,0,1-.5-1.322,4.383,4.383,0,0,1-.827.992c-.331.331-.5.5-.661.5l-.827.661-.827-.661a6.725,6.725,0,0,0,2.645-2.645.162.162,0,0,1,.165-.165,32.959,32.959,0,0,1-.661-4.959h-2.48v1.653H54.2a11.71,11.71,0,0,1-.165,2.314,12.819,12.819,0,0,1-.165,1.488c0,.165-.165.331-.331.5s-.331.165-.661.165a2.212,2.212,0,0,1-.827-.165l-.165-.992.992.165h.165a1.647,1.647,0,0,1,.165-.661,6.2,6.2,0,0,1,.165-1.653H52.051v2.314a3.227,3.227,0,0,1-.165,1.157c0,.331-.165.827-.165,1.157-.165.331-.165.661-.331.827a2.282,2.282,0,0,1-.5.661,2.556,2.556,0,0,1-.992-.5,8.859,8.859,0,0,0,.827-1.818,5.694,5.694,0,0,0,.165-1.488V12.18H54.2V9.7h.992v2.48h1.157a2.8,2.8,0,0,0-1.157-1.653M46.1,11.684h1.984a3.9,3.9,0,0,0-.992-1.488l.827-.5a3.474,3.474,0,0,1,1.157,1.818l-.5.331h2.149v.992H46.1V11.684Z" transform="translate(30.108 6.328)"/>
    <path id="Path_31" data-name="Path 31" class="cls-1" d="M2.81,17.139H5.125a4.882,4.882,0,0,0,.331-2.149H2.81ZM8.761,14.99H6.447a6.477,6.477,0,0,1-.331,2.149H8.761Zm2.976,5.621-.827,1.157a7.159,7.159,0,0,1-4.959-3.637H5.786c-.827,1.818-2.645,2.976-5.125,3.637L0,20.776a7.528,7.528,0,0,0,4.629-2.645H.5v-.992H1.818V14H5.455V12.841h.992V14H9.753v3.141h1.322v.992h-3.8c.165.5.827.992,1.653,1.653a6.093,6.093,0,0,0,2.81.827M5.621,12.18H3.967v1.157H2.976V12.18H.331v-.992H2.976V9.7h.992v1.488H5.786v.992ZM7.77,9.7h.992v1.488h2.645v.992H8.761v1.157H7.77V12.18H5.951v-.992H7.77Z" transform="translate(0 6.328)"/>
    <path id="Path_32" data-name="Path 32" class="cls-1" d="M17.188,18.366l-.331-.827,4.3-.827v.827Zm.992-2.81h1.653v-.827H18.18Zm2.645.992H17.188v-2.81h3.637Zm2.645-2.976.827.5a24.869,24.869,0,0,1-1.488,2.976c.331.661.5,1.157.661,1.157s.165-.5.331-1.653l.827.331a8.243,8.243,0,0,1-.5,1.984c-.165.331-.331.5-.661.5s-.827-.5-1.322-1.488a12.06,12.06,0,0,1-1.653,1.488l-.827-.5c.992-.827,1.818-1.488,2.149-1.818a17.766,17.766,0,0,1-.661-3.8h-4.3v-.992h4.3V11.092h.992v1.157h.827l-.661-.661.992-.5c.331.331.661.827.992,1.157h.5v.992h-2.48a13.11,13.11,0,0,0,.331,2.81,14.547,14.547,0,0,0,.827-2.48m-6.778,5.786h8.266V10.927H16.692Zm0,.992v.661H15.7V10.1H25.949V21.01h-.992v-.661Z" transform="translate(10.254 6.589)"/>
    <path id="Path_33" data-name="Path 33" class="cls-1" d="M60.143,7.565c0-.165-.165,0,.165-.165.165,0,.165.331.165.5.5-.331.165.661.827.5.331,0-.331,1.488-.165,2.48a7.031,7.031,0,0,0,.331,1.818c.165.331-.165.165-.165.165a9.362,9.362,0,0,1-.992-2.81c-.331-1.818-.331-2.314-.165-2.48" transform="translate(39.208 4.826)"/>
    <path id="Path_34" data-name="Path 34" class="cls-1" d="M58.531,9.909v.827c0,.165-.331.165-.331.331a.577.577,0,0,0,.165.331,7.447,7.447,0,0,0,1.653-1.653,4.866,4.866,0,0,0,.5-1.488c0-.331-.165,0-.165.165-.5,1.157-.827.992-1.157,1.157a1.024,1.024,0,0,1-.661.331" transform="translate(38.01 5.292)"/>
    <path id="Path_35" data-name="Path 35" class="cls-1" d="M59.247,12.088s.5-3.306.992-2.314a6.627,6.627,0,0,1,.331,2.81L60.4,13.906a10.913,10.913,0,0,0-.165,2.314v.827a.607.607,0,0,0-.165.5c0,.331-.5,3.967-.992,3.967-.331,0-.165-3.8-.165-3.8v-.827s.165-2.976.165-3.472Z" transform="translate(38.451 6.254)"/>
    <path id="Path_36" data-name="Path 36" class="cls-1" d="M59.729,16.831s-.661.165-.661.661c0,.165-.661.827-.331,1.322.165.5.5.827-.165,1.653-.165.165-.165-.5-.165-.827-.165-.165-.5-.661-.661-.827,0,0-.827-.5,0-1.653a5.5,5.5,0,0,1,2.149-1.322l1.488-.661a2.2,2.2,0,0,0,.992-.827c.165-.331.331-.827,0-1.157s-.661-.5-.661-.331L60.06,12.7a2.856,2.856,0,0,1-1.157-.331c-.827-.5-1.322-.827-.5-1.322.5-.331,1.984.165,1.984.165l1.322.661s1.488.827,1.653,1.653c.331,1.488-1.157,2.314-1.322,2.48a2.457,2.457,0,0,0-.992.165Z" transform="translate(37.473 7.132)"/>
    <path id="Path_37" data-name="Path 37" class="cls-1" d="M74.731,7.794c.661-1.488,1.818-2.645,2.81-.827.165.5.331,1.157,0,1.488-.165.331-.331-1.488-1.322-.165a17.551,17.551,0,0,0-3.141,6.778c-.331,1.653.165,1.984,0,2.149-.5.331-.827-.827-.661-2.314.661-5.125,1.984-6.447,2.314-7.108" transform="translate(47.267 3.936)"/>
    <path id="Path_38" data-name="Path 38" class="cls-1" d="M71.721,16.776a.375.375,0,0,0-.165.661c.331.165.331.165.5.5s.331.165.5,0a4.95,4.95,0,0,1,.661-1.322,6.458,6.458,0,0,1,.827-.661c.165-.165-.5-.165-.827,0a7.318,7.318,0,0,0-1.488.827" transform="translate(46.641 10.328)"/>
    <path id="Path_39" data-name="Path 39" class="cls-1" d="M72.252,15.592c-.5-.165.5-.827,1.488-.992.661,0,0,.331-.165.5a2.725,2.725,0,0,0-.827.992c0,.165-.331.331-.331.165,0-.5.165-.661-.165-.661" transform="translate(47.102 9.528)"/>
    <path id="Path_40" data-name="Path 40" class="cls-1" d="M71.72,14.851c.165-.5.661-2.149,1.488-.992.165.331,0,.165.5.331.331.165,0,.331-.331.331a2.116,2.116,0,0,0-.992,1.984,5.2,5.2,0,0,1-1.322,2.976c-.5.661-.992,1.322-.827,1.488,0,0-.331.5-.5-.165a2.3,2.3,0,0,1,.5-2.149c.661-.992,1.653-.661,1.653-1.984,0-.992-.165-1.157-.165-1.818" transform="translate(45.485 8.781)"/>
    <path id="Path_41" data-name="Path 41" class="cls-1" d="M63.947,6.365s-.331,0-.165.331,0,.5-.165.661c0,.165-.165.661.165.5A5.844,5.844,0,0,1,66.1,6.861c.827-.165,2.645-.331,2.81-.331s.165-.165-.165-.165S68.08,6.2,67.418,6.2a15.181,15.181,0,0,0-2.976.165c0-.165-.5-.165-.5,0" transform="translate(41.521 4.042)"/>
    <path id="Path_42" data-name="Path 42" class="cls-1" d="M64.4,7.5c0,.165.165.165.165.827-.165.331.827-.165.992-.331.331-.165.5-.165.5.165s-.331.165-.165.5.165.331.661.165c.331,0,.5-.331.661-.5s0-.331-.165-.5-.165-.331,0-.331a6.193,6.193,0,0,1,1.322.165c.165,0,0-.165-.165-.331-.331-.165-.827-.165-1.322-.331-.5.165-2.48,0-2.48.5" transform="translate(42.06 4.564)"/>
    <path id="Path_43" data-name="Path 43" class="cls-1" d="M70.273,7.964a2.525,2.525,0,0,1,2.645-1.157c.165,0,.165.5-.165.331-.331,0-1.653.5-1.157.992,0,0,.827,0,.827.661,0,.165-.661.661-.992.5-.165,0-.331-.165-.165-.5s-.165-.5-.331-.331a9.4,9.4,0,0,0-.5,2.645,7.337,7.337,0,0,1-.331,2.149c-.165.331-.661.661-.827.827-.165,0-.165.331-.5-.165a.985.985,0,0,0-1.157,0c-.165.165-1.488-.165-1.322-.5,0-.165.331,0,.5.165a1.49,1.49,0,0,0,.827-.165c.331-.165.331,0,.827,0,.331,0,.661.165.992,0,.5-.165.5-1.322.5-1.984-.165-.331-.165-3.141.331-3.472" transform="translate(43.295 4.427)"/>
    <path id="Path_44" data-name="Path 44" class="cls-1" d="M68.345,11.891s.331.331.5.165a1.271,1.271,0,0,1,.5-.331c.165-.165.331,0,.331.331s0,.5.165.5c0,.165,0,.165-.165.165s-.165-.331-.661-.165c-.165,0-.165,0-.5.331-.165,0-.331-.5-.992-.5-.331,0-.661.331-1.157.5-.165,0-.661,0-.661-.165,0-.331.331-.331.5-.165.331,0,.331,0,.661-.331.331-.165.5-.5.827-.5.331-.165.661.165.661.165" transform="translate(42.909 7.608)"/>
    <path id="Path_45" data-name="Path 45" class="cls-1" d="M66.365,12.5l.661.331c.331,0,1.653.165,1.818-.165.165-.165.165.165.165.165a1.407,1.407,0,0,1-1.322.827,2.407,2.407,0,0,1-1.488-.992.162.162,0,0,1,.165-.165" transform="translate(43.235 8.157)"/>
    <path id="Path_46" data-name="Path 46" class="cls-1" d="M62.7,16.041c-.165-.331,1.488.992,2.48,1.488a10.422,10.422,0,0,0,4.794.827c1.653-.165,2.645-2.645,3.472-3.967A16.88,16.88,0,0,0,75.1,9.759a2.561,2.561,0,0,1,.331-1.322c.165-.165.331-.165.331.5a27.143,27.143,0,0,1-.827,3.8,23.662,23.662,0,0,1-2.645,4.794c-.165.331-.5,1.322-1.322,1.653A5.759,5.759,0,0,1,67,18.851c-2.314-.827-4.133-2.314-4.3-2.81" transform="translate(40.945 5.443)"/>
    <path id="Path_47" data-name="Path 47" class="cls-1" d="M62.149.11s-.5.331.5,1.157c1.157.827,1.322.165,2.976.992.992.5.827.661,1.818,1.322.5.331.331,0,1.157.661s.827.827.827.331c0,0-.165.165-.5-1.322-.165-.992-.992-1.488-1.653-1.157-.5.165-.5.5-1.653-.661A1.62,1.62,0,0,0,63.8.606c-.992.165-1.322,0-1.488-.165,0-.5-.165-.331-.165-.331" transform="translate(40.509 0.048)"/>
    <path id="Path_48" data-name="Path 48" class="cls-1" d="M66.107.158s-.165.5.5.992c.827.661,1.157.827,1.322.992A1.991,1.991,0,0,1,69.248,3.63c.331.992.661-.165.661-.661A1.788,1.788,0,0,0,68.091,1.15C66.934.985,66.6.158,66.438.158c-.331-.331-.331,0-.331,0" transform="translate(43.163 0)"/>
    <path id="Path_49" data-name="Path 49" class="cls-1" d="M69.487,1.4s-.5.331,0,.661c.5.5.661.661.5,1.157-.165.661.827.5,1.157.331.5-.5-.165-.992-.331-1.157a10.126,10.126,0,0,0-.992-.661L69.487,1.4" transform="translate(45.238 0.907)"/>
    <path id="Path_50" data-name="Path 50" class="cls-1" d="M60.758,4.964s-.331-.661,0-.992,0-1.157.331-1.157-.165-.331.827.992,2.48.661,3.472.5c6.282-1.157,5.951-.827,8.6-.661.5,0,3.472.331,3.637,1.488.165.661-.165.827-.661,1.322-.165.165.165.992-.165,1.157-.331.331-.165-.5-.331-.992a26.82,26.82,0,0,0-3.637-.992c-3.306-.331-3.306-.661-6.778-.331-3.637.331-2.645.661-3.8.331-1.322-.331-1.488-.661-1.488-.661" transform="translate(39.585 1.807)"/>
    <path id="Path_51" data-name="Path 51" class="cls-1" d="M53.212,4.64c0-.331.661-.5.661-.827s.331-.827.661-.331.5,1.488,1.984,1.157c2.48-.5,2.81-1.157,5.125-1.322,1.818-.165,3.967,2.81,4.629,2.81.331,0-.165.661-.5.827-.661.165-2.149,1.653-3.637,1.653s-3.472-.661-4.3-.5c-.992.165-.992,1.157-1.818,1.322-.5,0-.331-.331,0-.5s.331-.5.165-.992c0-.5.331-1.322,1.818-1.488,3.637-.331,4.463.5,5.29.5.661,0,1.322-.165,1.488-.5.165-.165-.827.165-1.984-.5s-1.488-1.653-3.637-1.157c-2.149.331-3.306,1.818-4.463,1.488-1.157-.5-1.653-.827-1.488-1.653" transform="translate(34.733 2.13)"/>
    <path id="Path_52" data-name="Path 52" class="cls-1" d="M49.3.6V12.833h6.612V11.345H51.284V.6Z" transform="translate(32.198 0.385)"/>
    <path id="Path_53" data-name="Path 53" class="cls-1" d="M7.714,6.386H9.7a2.047,2.047,0,0,0,2.149-2.314A2.049,2.049,0,0,0,9.863,1.757H7.714ZM10.194.6a5.1,5.1,0,0,1,1.653.165,3.432,3.432,0,0,1,2.314,3.306,3.914,3.914,0,0,1-2.149,3.306l3.637,5.455H13L9.863,7.874H7.714v4.959H5.4V.6Z" transform="translate(3.527 0.385)"/>
    <path id="Path_54" data-name="Path 54" class="cls-1" d="M4.3,6.716c1.818,0,2.149-1.488,2.149-2.48,0-2.149-1.157-2.48-2.314-2.48H2.149V6.716ZM4.133.6H5.786C7.77.931,8.761,2.253,8.761,4.4A3.472,3.472,0,0,1,7.108,7.378a5.661,5.661,0,0,1-2.976.661H2.149v4.794H0V.6Z" transform="translate(0 0.385)"/>
    <path id="Path_55" data-name="Path 55" class="cls-1" d="M19.266,12.833a5.181,5.181,0,0,0,1.818-1.322h2.81a4.061,4.061,0,0,0,2.48-.827,5.118,5.118,0,0,0,1.984-4.3,4.561,4.561,0,0,0-1.984-3.8,3.984,3.984,0,0,0-2.48-.661H21.745V8.37a4.115,4.115,0,0,1-1.157,3.141,5.871,5.871,0,0,1-4.133,1.653C12.984,13.164,11,11.51,11,8.7V.6h2.149V8.37a4.1,4.1,0,0,0,.165,1.488c.331,1.157,1.653,1.818,3.306,1.818a2.87,2.87,0,0,0,3.141-3.141V.6h5.125a7.124,7.124,0,0,1,2.81.5A5.464,5.464,0,0,1,31,6.551c-.5,2.976-2.314,6.282-7.274,6.282Z" transform="translate(7.184 0.385)"/>
    <rect id="Rectangle_2" data-name="Rectangle 2" class="cls-1" width="2.149" height="12.233" transform="translate(67.281 0.985)"/>
    <path id="Path_56" data-name="Path 56" class="cls-1" d="M41.48,1.922h4.3v10.91h2.314V1.922H52.06V.6H39.827V9.527L32.553.6H30.735V11.345H24.784V7.212h5.125V5.725H24.784v-3.8h5.455V.6H22.8V12.833h9.588V3.906l7.439,8.927H41.48Z" transform="translate(14.891 0.385)"/>
    <path id="Path_57" data-name="Path 57" class="cls-1" d="M45.8,8.2H49.77L47.786,3.41ZM48.943.6l5.125,12.233H51.753L50.431,9.527H45.306l-1.322,3.306H42L47.29.6h1.653Z" transform="translate(27.43 0.385)"/>
  </g>
</svg>
