<svg xmlns="http://www.w3.org/2000/svg" viewBox="0 0 50 60.422">
  <defs>
    <style>
      .cls-1 {
        fill: #fff;
      }
    </style>
  </defs>
  <g id="LOGO_PRUDENTIAL_HORIZONTAL" data-name="LOGO_PRUDENTIAL HORIZONTAL" transform="translate(-0.02 0.007)">
    <path id="Path_132" data-name="Path 132" class="cls-1" d="M21.959.3c.269,0,.538.717,1.255.717s.9-.269,1.434-.269a4.85,4.85,0,0,1,2.331,1.7,1.6,1.6,0,0,0,1.345.717c.179,0,.717-.359,1.255-.269.448.09.986,0,1.613,1.434s.807,1.793.717,2.151-.359.538-.538.269A3.326,3.326,0,0,0,29.488,5.5a4.619,4.619,0,0,1-1.972-1.345,4.728,4.728,0,0,0-1.793-1.076,16.458,16.458,0,0,1-2.6-.538C22.5,2.272,21.6,1.824,21.6,1.107,21.6.3,21.959.3,21.959.3" transform="translate(-2.236 -0.032)"/>
    <path id="Path_133" data-name="Path 133" class="cls-1" d="M32.064,0c.359-.09.807.807,1.165.986A5.087,5.087,0,0,0,35.38,1.7a2.517,2.517,0,0,1,1.882,2.241c.09,1.255-.359,1.793-.627,1.793-.448,0-.448-.627-1.076-1.613a4.791,4.791,0,0,0-1.793-1.345,6.191,6.191,0,0,1-1.793-1.524C31.705.716,31.616.089,32.064,0" transform="translate(-3.288 0)"/>
    <path id="Path_134" data-name="Path 134" class="cls-1" d="M39.959,3.4c.269,0,.359.448.717.807s1.613.9,1.613,1.7A1.016,1.016,0,0,1,41.3,6.985c-.448,0-.986-.627-.9-.986a1.912,1.912,0,0,0-.269-1.076,3.651,3.651,0,0,1-.538-.986c0-.179.179-.538.359-.538" transform="translate(-4.102 -0.353)"/>
    <path id="Path_135" data-name="Path 135" class="cls-1" d="M41.077,10.737c0,.448.179.538-.538,1.434s-.179,1.972-.538,2.062c-.269.09-.359-.359-.359-.717A1.531,1.531,0,0,0,38.3,12.082a40.228,40.228,0,0,0-9.591-1.255c-3.944.09-6.812,1.076-7.888.986s-2.331-.717-2.42-1.7.269-.538.359-1.165c.09-.717,0-1.345.359-1.345s.538,1.255,1.345,1.7c.717.448,1.165,1.255,4.482.179A28.56,28.56,0,0,1,36.505,8.407c2.958.448,4.661.807,4.571,2.331" transform="translate(-1.903 -0.788)"/>
    <path id="Path_136" data-name="Path 136" class="cls-1" d="M41.581,17.372c0,.269-1.076.269-1.613.807s-.448.538-.09.717,1.076.807.986,1.165a1.56,1.56,0,0,1-1.165.9c-.538.09-.538-.359-.448-.538s.179-.538-.09-.448-.627,1.972-.717,2.958,0,2.779-.359,3.406A3.548,3.548,0,0,1,36.2,27.859c-.359,0-.269-.627-1.076-.627s-.538.538-1.255.538c-.627-.09-1.255-.627-1.076-.9.09-.269.717.179.986.09a7.888,7.888,0,0,1,1.345-.448,3.783,3.783,0,0,0,1.076.269c.359,0,1.255-.179,1.345-.9,0-.717-.359-4.034-.359-5.02.09-.986.179-2.958,2.241-3.5,2.241-.448,2.151-.179,2.151,0" transform="translate(-3.393 -1.776)"/>
    <path id="Path_137" data-name="Path 137" class="cls-1" d="M33.145,16.327c0,.269-2.151.09-3.5.538-1.434.448-3.048,1.524-3.585,1.524-.538.09-.269-.627-.09-.807s-.179-.717,0-.986a5,5,0,0,1,2.51-.9c1.255,0,4.751,0,4.661.627" transform="translate(-2.666 -1.628)"/>
    <path id="Path_138" data-name="Path 138" class="cls-1" d="M33.285,19.105c-.09.269-1.076-.09-1.434,0-.448.09-.179.448-.09.627.09.269.09.627-.9.986s-.9,0-.986-.269c0-.269.359-.179.359-.538s-.359-.448-.717-.269-.9.717-1.255.627-.179-.359-.179-.717-.359-.717.179-.986a7.993,7.993,0,0,1,2.51-.269c.717-.09,2.689.269,2.51.807" transform="translate(-2.896 -1.896)"/>
    <path id="Path_139" data-name="Path 139" class="cls-1" d="M41.029,21.4c.269-.09.448,1.434-.09,4.213A21.331,21.331,0,0,1,38.071,32.6c-.986,1.434-1.613,4.213-3.585,4.482-2.062.269-5.647-.986-7.35-1.972S23.819,32.963,24,32.6s4.392,3.227,8.695,3.048c1.613-.09,2.51.269,4.571-3.5a25.942,25.942,0,0,0,3.048-7.171c.538-2.151.448-3.406.717-3.585" transform="translate(-2.483 -2.218)"/>
    <path id="Path_140" data-name="Path 140" class="cls-1" d="M31.5,31.524c0-.269.359,0,.9-.448A16.956,16.956,0,0,1,34.279,30c.179,0,.717.717,1.165.627.538-.09.717-.448.986-.448.179.09.627,1.076.448,1.345s-.448,0-.717-.179c-.538-.269-.627.359-.9.359s-.538-.627-.986-.627-1.524.807-2.062.717a.84.84,0,0,1-.717-.269" transform="translate(-3.262 -3.11)"/>
    <path id="Path_141" data-name="Path 141" class="cls-1" d="M33.188,32.49c.179-.179.627.448,1.7.359a4.2,4.2,0,0,0,1.524-.448c.179,0,.627.538-.448,1.434a1.675,1.675,0,0,1-2.241-.179c-.717-.807-.717-.986-.538-1.165" transform="translate(-3.427 -3.358)"/>
    <path id="Path_142" data-name="Path 142" class="cls-1" d="M53.1,15c.9-.09,1.613.9,1.7,1.972s0,1.434-.179,1.434c-.179.09-.269-.807-.807-.717-.717.09-2.779,2.958-4.392,8.426-1.165,3.765-.179,5.109-.627,5.2s-.986-1.524-.9-3.317c.179-1.882,2.151-12.639,5.2-13" transform="translate(-4.961 -1.555)"/>
    <path id="Path_143" data-name="Path 143" class="cls-1" d="M45.533,34.5c.448-.09.448.538.717.717.269.269,1.076.269.627.717s-1.255,0-1.7,2.241c-.359,2.241,0,2.51-1.255,4.3S42.486,44.09,42.4,44.628s-.269,1.345-.717.627,0-2.868.627-3.5,2.062-1.165,2.062-2.6c-.09-1.345-.717-4.3,1.165-4.661" transform="translate(-4.298 -3.575)"/>
    <path id="Path_144" data-name="Path 144" class="cls-1" d="M47.5,38.477c.09-.359,2.151-1.345,2.241-.986s-.986.986-1.255,1.793c-.359.9-.538.179-.627-.179a1.527,1.527,0,0,0-.359-.627" transform="translate(-4.92 -3.878)"/>
    <path id="Path_145" data-name="Path 145" class="cls-1" d="M49.015,40.684c.269.179-.9.9-1.255,1.613s-.359,1.613-.9,1.7c-.448.09-.448-.538-.627-.807s-.627-.359-.538-.627c.179-.269,2.241-2.6,3.317-1.882" transform="translate(-4.732 -4.203)"/>
    <path id="Path_146" data-name="Path 146" class="cls-1" d="M16.087,34.541c.09-.538.269-2.958.269-2.958a1.471,1.471,0,0,1,.9,1.524,1.41,1.41,0,0,1-1.165,1.434m2.868-1.972c-.09-1.972-2.151-2.779-2.42-3.048-.269-.359,0-2.868-.538-3.854-.717-1.434-1.613,2.958-1.613,2.958s-2.689-.807-2.779.359.986,1.524,1.255,1.7c.359.179,1.165.09,1.165.359.09.269-.09,4.482-.09,4.482S10.529,37.14,10.8,38.574c.269,1.524,1.255,1.793,1.255,2.42s-.179.9.09.986c.269.179.807-.538.717-1.524-.09-.717-.627-1.7-.269-2.241a3.67,3.67,0,0,1,1.255-1.345s.179,5.109.448,5.2c.359.09,1.165-3.854,1.434-6.185.09.269,3.317-1.255,3.227-3.317" transform="translate(-1.115 -2.631)"/>
    <path id="Path_147" data-name="Path 147" class="cls-1" d="M19.165,27.023c-.269.179-1.7-2.958-1.972-5.558s.448-2.062.627-1.793,1.613.9,1.255,2.062c-.9,2.51.538,5.109.09,5.289" transform="translate(-1.773 -2.015)"/>
    <path id="Path_148" data-name="Path 148" class="cls-1" d="M15.733,21.7c.627.09-.448,2.958-2.6,4.571-.538.448-.717-.359-.448-.627.179-.269.538-.538.359-.9s.269-.627.627-.807c1.255-.538,1.793-2.241,2.062-2.241" transform="translate(-1.3 -2.249)"/>
    <path id="Path_149" data-name="Path 149" class="cls-1" d="M17.75,13.318A2.474,2.474,0,0,1,16.5,14.662c-.717.359-2.331,1.972-4.482,1.793S7.8,15.648,6.456,16.1c-1.434.538-1.793,2.331-2.689,1.793-.269-.179.448-.627.448-1.345.09-.717-.359-1.345.359-1.972a7.994,7.994,0,0,1,5.647-1.165c2.6.538,4.482.807,5.289.09a4.979,4.979,0,0,1-3.137-1.076c-1.882-1.255-3.406-1.524-5.02-.807-1.7.717-3.765,2.331-5.826,1.793S0,11.077.361,10.808s.717-.448.627-.986.717-.538.9-.09.717,1.793,2.958,1.345c2.689-.538,5.558-2.241,6.992-1.882a10.285,10.285,0,0,1,4.392,2.868c1.524,1.434,1.613.717,1.524,1.255" transform="translate(0 -0.948)"/>
    <path id="Path_150" data-name="Path 150" class="cls-1" d="M51.6,50.9v6.633h3.675v-.807h-2.6V50.9Z" transform="translate(-5.345 -5.275)"/>
    <path id="Path_151" data-name="Path 151" class="cls-1" d="M10.31,50.9a2.763,2.763,0,0,1,.9.09,1.861,1.861,0,0,1,1.255,1.793A2.122,2.122,0,0,1,11.3,54.575l1.972,2.958H11.834l-1.7-2.689H8.965v2.689H7.8V50.9ZM8.965,54.037h1.076a1.264,1.264,0,0,0,.09-2.51H8.965Z" transform="translate(-0.806 -5.275)"/>
    <path id="Path_152" data-name="Path 152" class="cls-1" d="M4.541,50.89h.9a1.842,1.842,0,0,1,1.613,2.062,1.883,1.883,0,0,1-.9,1.613,2.7,2.7,0,0,1-1.613.359H3.555v2.51H2.3V50.8H4.541Zm.09,3.317c.986,0,1.165-.807,1.165-1.345,0-1.165-.627-1.345-1.255-1.345H3.555v2.689Z" transform="translate(-0.236 -5.265)"/>
    <path id="Path_153" data-name="Path 153" class="cls-1" d="M17.771,57.544a3.98,3.98,0,0,0,.986-.717h1.434a2.2,2.2,0,0,0,1.345-.448,2.775,2.775,0,0,0,1.076-2.331,2.473,2.473,0,0,0-1.076-2.062,2.16,2.16,0,0,0-1.345-.359H19.026v3.5a2.232,2.232,0,0,1-.627,1.7,3.184,3.184,0,0,1-2.241.9c-1.882,0-2.958-.9-2.958-2.42V51h1.165v4.213a2.226,2.226,0,0,0,.09.807,1.708,1.708,0,0,0,1.793.986,1.556,1.556,0,0,0,1.7-1.7V51.09H20.73a3.863,3.863,0,0,1,1.524.269,2.963,2.963,0,0,1,1.793,2.958c0,1.7-.986,3.406-3.675,3.406h-2.6Z" transform="translate(-1.366 -5.286)"/>
    <rect id="Rectangle_95" data-name="Rectangle 95" class="cls-1" width="1.165" height="6.633" transform="translate(38.546 45.625)"/>
    <path id="Path_154" data-name="Path 154" class="cls-1" d="M35.229,51.617h2.42v5.916h1.165V51.617h2.151V50.9H34.422v4.84L30.389,50.9H29.4v5.826H26.265V54.485h2.689v-.807H26.265V51.617h2.868V50.9H25.1v6.633h5.2v-4.84l4.034,4.84h.9Z" transform="translate(-2.599 -5.275)"/>
    <path id="Path_155" data-name="Path 155" class="cls-1" d="M48.065,50.9l2.779,6.633H49.589l-.717-1.793H46.093l-.717,1.793H44.3L47.168,50.9Zm-1.7,4.123h2.151l-1.076-2.6Z" transform="translate(-4.589 -5.275)"/>
    <path id="Path_156" data-name="Path 156" class="cls-1" d="M35.837,62.151h2.331V60.9H35.837Zm3.5,1.076v.538H37.9a3.806,3.806,0,0,0,1.882,1.882l-.448.448a4.029,4.029,0,0,1-1.972-2.062h0v2.6h-.538v-2.51h0a3.414,3.414,0,0,1-.717,1.165,4.753,4.753,0,0,1-1.076.9l-.448-.448a4.567,4.567,0,0,0,1.793-1.882H34.762v-.538h1.972v-.627H35.21V60.359h3.5v2.331H37.271v.627h2.062Zm-6.185.448-.448-.359A5.667,5.667,0,0,0,34.4,60l.538.269a3.1,3.1,0,0,1-.269,1.076l-.179.538v4.751h-.538V62.868h0a6.75,6.75,0,0,1-.807.807" transform="translate(-3.387 -6.218)"/>
    <path id="Path_157" data-name="Path 157" class="cls-1" d="M50.1,64.571h-.717v.9H50.1ZM49.3,65.916v.538h-.538v-2.42h1.793v1.882Zm1.345-2.42H48.669v-.538h1.972Zm-1.882-1.524h1.972v.538H48.759Zm4.571-1.524.359-.269a1.88,1.88,0,0,1,.717.986l-.359.179h.538v.538H53.42l.179,1.882h0a4.746,4.746,0,0,0,.359-1.434l.538.269a6.213,6.213,0,0,1-.627,2.062,10.053,10.053,0,0,0,.448,1.165,5.045,5.045,0,0,0,.179-.9l.538.269c-.09.359-.09.627-.179.9s-.179.359-.179.448a.448.448,0,0,1-.538,0,1.459,1.459,0,0,1-.269-.538,3.69,3.69,0,0,1-.269-.717,2.377,2.377,0,0,1-.448.538c-.179.179-.269.269-.359.269l-.448.359L51.9,66.1a3.647,3.647,0,0,0,1.434-1.434.088.088,0,0,1,.09-.09,17.871,17.871,0,0,1-.359-2.689H51.717v.9h1.255a6.35,6.35,0,0,1-.09,1.255,6.952,6.952,0,0,1-.09.807c0,.09-.09.179-.179.269s-.179.09-.359.09a1.2,1.2,0,0,1-.448-.09l-.269-.627.538.09h.09a.893.893,0,0,1,.09-.359,3.363,3.363,0,0,1,.09-.9h-.717v1.165a1.75,1.75,0,0,1-.09.627c0,.179-.09.448-.09.627-.09.179-.09.359-.179.448a1.237,1.237,0,0,1-.269.359,1.386,1.386,0,0,1-.538-.269,4.8,4.8,0,0,0,.448-.986,3.088,3.088,0,0,0,.09-.807V61.255h1.882V60h.538v1.345h.627a2.276,2.276,0,0,0-.717-.9m-4.93.627h1.076a2.117,2.117,0,0,0-.538-.807L49.386,60a1.884,1.884,0,0,1,.627.986l-.269.179H50.91V61.7H48.4v-.627Z" transform="translate(-5.014 -6.218)"/>
    <path id="Path_158" data-name="Path 158" class="cls-1" d="M3.824,64.034H5.079a2.647,2.647,0,0,0,.179-1.165H3.824Zm3.227-1.165H5.8a3.512,3.512,0,0,1-.179,1.165H7.051Zm1.613,3.048-.359.627a3.882,3.882,0,0,1-2.689-1.972H5.437a4.123,4.123,0,0,1-2.779,1.972L2.3,66.006a4.082,4.082,0,0,0,2.51-1.434H2.569v-.538h.717v-1.7H5.258V61.7H5.8v.627H7.589v1.7h.717v.538H6.244c.09.269.448.538.9.9a3.3,3.3,0,0,0,1.524.448M5.437,61.345H4.451v.627H3.913v-.627H2.479v-.538H3.913V60h.538v.807h.986v.538ZM6.513,60h.538v.807H8.485v.538H7.051v.627H6.513v-.627H5.527v-.538h.986Z" transform="translate(-0.236 -6.218)"/>
    <path id="Path_159" data-name="Path 159" class="cls-1" d="M18.807,64.882l-.179-.448,2.331-.448v.448Zm.627-1.524h.9V62.91h-.9Zm1.434.538H18.9V62.372h1.972ZM22.3,62.282l.448.269a13.484,13.484,0,0,1-.807,1.613c.179.359.269.627.359.627s.09-.269.179-.9l.448.179a4.469,4.469,0,0,1-.269,1.076c-.09.179-.179.269-.359.269s-.448-.269-.717-.807a6.539,6.539,0,0,1-.9.807l-.448-.269c.538-.448.986-.807,1.165-.986a8.667,8.667,0,0,1-.359-2.062H18.717v-.538h2.241v-.627H21.5v.627h.448l-.359-.359.538-.269c.179.179.359.448.538.627h.269V62.1H21.585a7.109,7.109,0,0,0,.179,1.524l.538-1.345M18.538,65.42H23.02V60.848H18.538Zm0,.538v.359H18V60.4h5.558v5.916H23.02v-.359Z" transform="translate(-1.863 -6.26)"/>
  </g>
</svg>
