<?xml version="1.0" standalone="no"?>
<!DOCTYPE svg PUBLIC "-//W3C//DTD SVG 20010904//EN"
 "http://www.w3.org/TR/2001/REC-SVG-20010904/DTD/svg10.dtd">
<svg version="1.0" xmlns="http://www.w3.org/2000/svg"
 width="248.000000pt" height="248.000000pt" viewBox="0 0 248.000000 248.000000"
 preserveAspectRatio="xMidYMid meet">
<metadata>
Created by potrace 1.11, written by Peter Selinger 2001-2013
</metadata>
<g transform="translate(0.000000,248.000000) scale(0.100000,-0.100000)"
fill="#000000" stroke="none">
<path d="M1030 2175 c0 -19 45 -77 68 -89 15 -7 64 -26 110 -41 64 -21 98 -39
145 -79 81 -68 108 -86 128 -86 29 0 30 30 3 91 -37 81 -52 93 -112 86 -54 -6
-70 1 -134 64 -31 31 -45 37 -95 42 -32 3 -70 9 -85 13 -16 3 -28 3 -28 -1z"/>
<path d="M1450 2157 c0 -14 70 -83 141 -140 26 -20 49 -47 53 -61 7 -26 34
-42 49 -27 5 5 9 31 9 57 -1 54 -27 89 -73 99 -16 4 -53 24 -81 46 -52 39 -98
51 -98 26z"/>
<path d="M1784 2016 c-3 -8 0 -40 6 -71 9 -43 17 -59 35 -67 32 -14 51 -5 59
27 6 22 0 35 -36 73 -49 55 -56 59 -64 38z"/>
<path d="M844 1835 c-4 -9 -4 -43 -2 -77 4 -52 9 -65 33 -86 25 -21 35 -24 84
-19 230 23 416 29 537 19 190 -17 227 -30 296 -104 l56 -61 11 39 c6 21 17 60
25 85 13 43 13 49 -5 78 -11 18 -34 38 -52 46 -62 25 -193 39 -377 40 -184 0
-185 0 -288 -34 -127 -42 -160 -38 -207 25 -42 59 -98 83 -111 49z"/>
<path d="M101 1794 c-12 -15 -26 -45 -33 -67 -12 -38 -11 -40 20 -68 45 -40
86 -38 245 12 81 26 152 41 187 42 53 2 60 -1 91 -33 19 -19 48 -45 64 -56 24
-18 27 -25 18 -35 -10 -10 -25 -9 -75 7 -46 14 -92 19 -168 18 -119 0 -158
-14 -189 -66 -20 -31 -37 -115 -27 -126 4 -3 19 6 34 21 15 15 54 37 85 50
l58 23 112 -32 c62 -18 120 -33 130 -34 24 0 194 107 207 130 5 10 10 25 10
33 0 14 -142 133 -209 174 -51 33 -120 30 -229 -7 -151 -53 -230 -49 -260 13
-17 34 -45 35 -71 1z"/>
<path d="M1241 1521 c-74 -26 -91 -57 -47 -86 25 -17 45 -13 86 16 27 19 120
39 182 39 90 0 0 39 -107 47 -42 2 -76 -2 -114 -16z"/>
<path d="M2282 1507 c-51 -29 -106 -146 -167 -356 -48 -167 -59 -241 -45 -307
6 -30 15 -54 19 -54 4 0 13 29 20 65 21 115 81 307 121 392 47 97 79 125 134
116 35 -5 36 -5 36 27 0 40 -26 96 -54 115 -25 18 -34 18 -64 2z"/>
<path d="M1749 1417 c-63 -42 -82 -93 -89 -242 -9 -162 -15 -175 -78 -175 -26
0 -62 4 -79 9 -39 11 -52 -2 -29 -27 12 -14 31 -17 92 -16 67 1 80 4 95 23 26
32 39 84 45 176 8 117 11 128 34 115 43 -23 80 23 56 71 -16 32 -16 33 49 54
20 6 20 7 1 21 -28 20 -58 17 -97 -9z"/>
<path d="M1305 1418 c-27 -15 -45 -38 -45 -60 0 -29 28 -33 56 -8 l24 23 0
-24 c0 -31 17 -49 47 -49 29 0 57 41 48 71 -7 20 -5 21 25 16 46 -10 34 15
-16 30 -50 15 -113 16 -139 1z"/>
<path d="M817 1383 c-23 -22 12 -242 50 -317 13 -25 17 -27 25 -13 5 11 5 32
-2 58 -6 22 -10 82 -8 133 2 75 0 97 -15 119 -17 26 -37 34 -50 20z"/>
<path d="M732 1282 c-13 -18 -37 -39 -53 -48 -30 -15 -69 -67 -69 -91 0 -7 12
-13 26 -13 45 0 129 112 122 163 -3 20 -5 20 -26 -11z"/>
<path d="M1868 1237 c-9 -7 -32 -65 -52 -130 -41 -130 -113 -307 -150 -366
-56 -87 -150 -131 -253 -117 -57 8 -155 50 -227 97 -66 44 -76 47 -76 20 0
-54 116 -122 280 -166 115 -30 135 -31 177 -5 50 30 156 181 223 315 55 111
110 276 110 332 0 28 -13 36 -32 20z"/>
<path d="M722 1083 c-13 -46 -24 -67 -34 -64 -7 2 -32 6 -55 8 -52 7 -64 -12
-40 -63 14 -29 22 -34 52 -34 19 0 35 -3 35 -7 0 -5 -7 -57 -15 -118 -8 -60
-15 -111 -15 -112 0 0 -25 -15 -55 -32 -59 -33 -95 -79 -95 -122 0 -41 52
-134 75 -134 19 0 20 6 17 80 -3 70 -1 84 18 108 12 15 25 27 29 27 4 0 7 -49
6 -109 0 -75 4 -114 13 -122 22 -23 33 4 60 144 l26 134 54 28 c29 15 62 39
72 53 39 49 18 135 -46 192 -29 25 -34 36 -34 73 0 45 -26 137 -39 137 -5 0
-17 -30 -29 -67z m88 -241 c14 -51 13 -59 -10 -82 -33 -33 -43 -25 -36 28 16
112 26 125 46 54z"/>
<path d="M1475 899 c-22 -11 -52 -18 -67 -16 -18 2 -28 -1 -28 -10 0 -19 42
-26 85 -14 23 6 46 6 62 0 53 -20 103 -6 103 29 0 11 -9 13 -34 9 -24 -4 -39
-1 -47 9 -15 18 -25 17 -74 -7z"/>
<path d="M1450 809 c0 -16 64 -49 96 -49 27 0 75 33 63 44 -10 9 -159 14 -159
5z"/>
<path d="M1923 663 c-10 -26 -14 -55 -10 -91 7 -70 -3 -96 -51 -126 -49 -30
-77 -74 -97 -151 -15 -61 -12 -99 8 -92 24 8 132 202 166 300 33 95 38 103 69
112 38 11 40 23 7 59 -36 39 -72 35 -92 -11z"/>
<path d="M2042 568 c-15 -15 -15 -51 0 -66 9 -9 18 -6 40 15 37 36 37 63 0 63
-15 0 -33 -5 -40 -12z"/>
<path d="M2015 433 c-54 -28 -77 -55 -70 -83 7 -26 42 -70 57 -70 4 0 8 9 8
20 0 30 23 70 59 104 17 17 31 33 31 38 0 13 -53 8 -85 -9z"/>
</g>
</svg>
