<?xml version="1.0" standalone="no"?>
<!DOCTYPE svg PUBLIC "-//W3C//DTD SVG 1.1//EN" "http://www.w3.org/Graphics/SVG/1.1/DTD/svg11.dtd" >
<svg xmlns="http://www.w3.org/2000/svg">
<metadata>Generated by IcoMoon</metadata>
<defs>
<font id="icomoon" horiz-adv-x="1024">
<font-face units-per-em="1024" ascent="960" descent="-64" />
<missing-glyph horiz-adv-x="1024" />
<glyph unicode="&#x20;" horiz-adv-x="512" d="" />
<glyph unicode="&#xe900;" glyph-name="max-menu" d="M0 168.727h651.636v93.091h-651.636zM0 401.455h651.636v93.091h-651.636zM0 727.273v-93.091h651.636v93.091zM814.545 634.182l209.455-209.455-209.455-209.455z" />
<glyph unicode="&#xe901;" glyph-name="ico_person" d="M245.76 58.88h-40.96v76.8c0 102.113 204.8 153.559 307.2 153.559s307.2-51.446 307.2-153.559v-76.8h-40.96c0-45.056-119.235-81.92-266.24-81.92s-266.24 36.864-266.24 81.92zM358.4 519.68c0 84.831 68.769 153.6 153.6 153.6s153.6-68.769 153.6-153.6c0-84.831-68.769-153.6-153.6-153.6v0c-0.012 0-0.027 0-0.041 0-84.808 0-153.559 68.751-153.559 153.559 0 0.014 0 0.029 0 0.043v-0.002z" />
<glyph unicode="&#xe902;" glyph-name="question-mark" d="M638.578-55.58v196.551c0.015 0.363 0.024 0.79 0.024 1.218 0 17.437-14.136 31.573-31.573 31.573-0.428 0-0.855-0.009-1.279-0.025l0.061 0.002h-196.551c-0.381 0.016-0.828 0.026-1.277 0.026-17.406 0-31.516-14.11-31.516-31.516 0-0.449 0.009-0.896 0.028-1.341l-0.002 0.064v-196.551c-0.016-0.381-0.026-0.828-0.026-1.277 0-17.406 14.11-31.516 31.516-31.516 0.449 0 0.896 0.009 1.341 0.028l-0.064-0.002h196.551c0.381-0.016 0.828-0.026 1.277-0.026 17.406 0 31.516 14.11 31.516 31.516 0 0.449-0.009 0.896-0.028 1.341l0.002-0.064zM900.722 632.377c-0.123 63.098-21.503 121.178-57.358 167.485l0.469-0.63c-36.96 50.107-84.486 90.295-139.472 117.771l-2.238 1.013c-50.656 26.192-110.524 41.674-173.98 41.984h-0.1c-3.744 0.12-8.146 0.189-12.564 0.189-157.642 0-294.906-87.25-366.136-216.094l-1.090-2.15c-3.789-4.888-6.074-11.107-6.074-17.861 0-10.631 5.662-19.939 14.135-25.074l0.131-0.073 135.111-102.4c4.874-3.857 11.109-6.186 17.889-6.186 0.551 0 1.099 0.015 1.643 0.046l-0.075-0.003c0.385-0.018 0.836-0.028 1.29-0.028 9.942 0 18.76 4.812 24.252 12.234l0.058 0.082c25.873 35.6 54.862 66.539 87.245 93.544l0.819 0.664c23.121 15.47 51.563 24.689 82.159 24.689 2.037 0 4.064-0.041 6.081-0.122l-0.289 0.009c0.647 0.010 1.411 0.016 2.175 0.016 31.93 0 61.532-9.968 85.864-26.962l-0.487 0.322c21.766-12.164 36.649-34.375 38.388-60.189l0.012-0.227c0.072-1.365 0.114-2.964 0.114-4.572 0-22.067-7.77-42.32-20.724-58.171l0.13 0.165c-19.346-19.406-42.5-35.003-68.248-45.577l-1.384-0.503c-46.56-21.699-85.898-51.516-117.808-87.996l-0.35-0.409c-32.415-33.216-52.733-78.368-53.757-128.258l-0.003-0.197v-36.864c-0.016-0.381-0.026-0.828-0.026-1.277 0-17.406 14.11-31.516 31.516-31.516 0.449 0 0.896 0.009 1.341 0.028l-0.064-0.002h196.551c0.381-0.016 0.828-0.026 1.277-0.026 17.406 0 31.516 14.11 31.516 31.516 0 0.449-0.009 0.896-0.028 1.341l0.002-0.064c2.408 19.557 10.282 36.932 22.026 50.954l-0.124-0.152c14.76 20.759 33.396 37.76 54.974 50.243l0.834 0.445c21.788 12.288 38.571 22.016 50.176 29.184 17.719 11.741 33.085 23.528 47.598 36.265l-0.494-0.425c17.413 14.195 32.433 30.372 45.004 48.385l0.507 0.767c11.279 17.813 20.931 38.327 27.913 60.039l0.532 1.913c8.333 24.308 13.144 52.315 13.144 81.446 0 0.447-0.001 0.893-0.003 1.339v-0.069z" />
<glyph unicode="&#xe903;" glyph-name="next" d="M512 960l-90.24-90.24 357.12-357.76h-778.88v-128h778.88l-357.12-357.76 90.24-90.24 512 512z" />
<glyph unicode="&#xe904;" glyph-name="quotation" horiz-adv-x="869" d="M772.85 857.642h-202.902c-17.171 59.585-71.208 102.433-135.252 102.433s-118.081-42.848-135.007-101.441l-0.245-0.992h-202.855c-53.748-1.842-96.619-45.856-96.619-99.884 0-0.87 0.011-1.738 0.033-2.602l-0.003 0.128v-716.879c-0.020-0.737-0.031-1.604-0.031-2.475 0-54.027 42.872-98.042 96.451-99.879l0.168-0.005h676.262c53.748 1.842 96.619 45.856 96.619 99.884 0 0.87-0.011 1.738-0.033 2.602l0.003-0.128v716.879c0.020 0.737 0.031 1.604 0.031 2.475 0 54.027-42.872 98.042-96.451 99.879l-0.168 0.005zM434.743 857.642c26.874-0.921 48.31-22.928 48.31-49.942 0-0.435-0.006-0.869-0.017-1.301l0.001 0.064c0.010-0.368 0.015-0.802 0.015-1.237 0-27.014-21.436-49.021-48.226-49.94l-0.084-0.002c-0.429-0.014-0.934-0.022-1.441-0.022-25.978 0-47.038 21.060-47.038 47.038 0 1.466 0.067 2.915 0.198 4.347l-0.014-0.184c-0.117 1.247-0.184 2.696-0.184 4.162 0 25.978 21.060 47.038 47.038 47.038 0.49 0 0.979-0.008 1.465-0.022l-0.071 0.002zM357.416 263.686c-0.235-2.637-0.368-5.704-0.368-8.803 0-11.483 1.837-22.538 5.233-32.886l-0.212 0.745c4.005-9.771 8.863-18.203 14.675-25.872l-0.205 0.283c5.065-5.181 11.677-8.83 19.087-10.202l0.221-0.034h14.47v122.83c-19.308 5.118-33.825 10.236-53.133 15.354-16.591 7.122-30.901 15.699-43.869 25.903l0.413-0.314c-13.609 10.069-23.772 24.102-28.835 40.381l-0.151 0.562c-6.588 14.163-10.431 30.744-10.431 48.224 0 4.664 0.274 9.265 0.806 13.786l-0.053-0.548c-0.034 1.319-0.053 2.872-0.053 4.43 0 14.762 1.715 29.123 4.956 42.895l-0.251-1.264c7.552 19.575 17.326 36.488 29.294 51.582l-0.308-0.403c8.322 9.864 17.867 18.329 28.489 25.284l0.497 0.305 28.986 15.354c7.123 3.352 15.471 5.309 24.276 5.309 1.658 0 3.299-0.069 4.922-0.205l-0.212 0.014c1.159-0.115 2.506-0.181 3.868-0.181 7.45 0 14.442 1.965 20.484 5.406l-0.204-0.107v51.412h38.663v-56.297c19.4-1.046 37.589-4.763 54.685-10.795l-1.366 0.42c20.484-5.612 37.354-18.426 48.095-35.486l0.199-0.339c7.783-7.178 14.245-15.645 19.074-25.086l0.234-0.504c5.084-7.207 8.54-15.908 9.652-25.327l0.025-0.263c0-10.236 4.653-15.354 4.653-25.59v-20.472h-86.586c0 15.354 0 25.59-4.653 30.707-4.653 10.236-4.653 15.354-9.677 20.472s-9.677 10.236-14.47 10.236-14.47 5.118-19.308 5.118v-122.69c19.308-5.118 38.663-10.236 53.133-15.354 18.445-7.097 34.37-15.709 48.984-26.053l-0.689 0.463c13.724-11.24 25.044-24.832 33.47-40.234l0.355-0.709c9.188-16.095 14.605-35.369 14.605-55.909 0-1.953-0.049-3.895-0.146-5.824l0.011 0.271c0.14-2.16 0.219-4.684 0.219-7.226 0-12.019-1.78-23.623-5.092-34.561l0.219 0.844-14.47-30.707c-5.064-9.945-11.525-18.412-19.247-25.534l-0.061-0.056c-4.653-5.118-14.47-15.354-19.308-15.354-13.68-11.042-29.757-19.781-47.261-25.308l-1.033-0.281c-10.867-3.376-23.36-5.32-36.307-5.32-2.515 0-5.012 0.073-7.491 0.218l0.342-0.016v-71.697h-33.825v71.418c-2.136-0.129-4.634-0.202-7.149-0.202-12.947 0-25.441 1.944-37.204 5.557l0.897-0.237c-13.579 3.247-24.872 6.759-35.852 10.908l2.028-0.672c-9.677 5.118-14.47 10.236-24.147 15.354s-9.677 10.236-14.47 10.236c-12.671 12.628-22.573 28.027-28.721 45.211l-0.265 0.85c-5.264 18.173-8.736 39.21-9.659 60.907l-0.019 0.554h86.539zM420.227 519.581c-1.236 0.118-2.673 0.185-4.125 0.185-13.721 0-26.043-5.987-34.497-15.492l-0.041-0.047c-9.009-10.456-14.496-24.17-14.496-39.166 0-0.625 0.010-1.248 0.028-1.868l-0.002 0.091c-0.284-1.798-0.447-3.871-0.447-5.982 0-7.201 1.891-13.96 5.204-19.808l-0.104 0.2c4.653-5.118 4.653-10.236 9.677-15.354s9.677-10.236 14.47-10.236c4.527-3.298 10.199-5.277 16.333-5.277 1.048 0 2.083 0.058 3.101 0.17l-0.125-0.011v112.687zM449.213 181.66c14.893 0.557 28.351 6.278 38.732 15.413l-0.069-0.059c9.009 10.456 14.496 24.17 14.496 39.166 0 0.625-0.010 1.248-0.028 1.868l0.002-0.091c0.016 0.455 0.024 0.99 0.024 1.527 0 13.447-5.549 25.598-14.483 34.288l-0.011 0.011c-11.852 10.322-26.629 17.582-42.928 20.396l-0.528 0.075v-112.64z" />
<glyph unicode="&#xe905;" glyph-name="file-image-o" d="M915.661 742.861c11.53-12.165 20.822-26.587 27.129-42.517l0.315-0.901c6.761-14.761 10.915-31.973 11.414-50.097l0.004-0.181v-658.33c0-0.061 0-0.133 0-0.205 0-30.172-24.459-54.63-54.63-54.63-0.090 0-0.18 0-0.27 0.001h-767.986c-0.061 0-0.133 0-0.205 0-30.172 0-54.63 24.459-54.63 54.63 0 0.072 0 0.144 0 0.216v-0.011 914.33c-0.005 0.276-0.008 0.601-0.008 0.927 0 14.873 6.139 28.312 16.021 37.922l0.012 0.012c9.617 9.864 23.036 15.983 37.884 15.983 0.326 0 0.65-0.003 0.975-0.009l-0.049 0.001h512c18.306-0.503 35.517-4.656 51.105-11.755l-0.826 0.337c16.83-6.621 31.252-15.913 43.478-27.5l-0.060 0.056zM661.965 882.278v-215.040h215.040c-2.633 9.057-6.964 16.9-12.665 23.532l0.069-0.083-178.842 178.842c-6.584 5.705-14.48 10.090-23.162 12.638l-0.441 0.111zM881.408 9.114v585.165h-237.722c-0.076 0-0.166-0.001-0.257-0.001-30.172 0-54.63 24.459-54.63 54.63 0 0.090 0 0.18 0.001 0.27v-0.014 237.67h-438.835v-877.67zM808.243 265.114v-182.835h-585.165v109.722l109.722 109.722 73.165-73.165 219.392 219.443zM332.8 374.835c-0.137-0.001-0.299-0.001-0.462-0.001-60.343 0-109.261 48.918-109.261 109.261 0 0.162 0 0.325 0.001 0.487v-0.025c0.156 60.48 49.22 109.448 109.721 109.448 60.598 0 109.722-49.124 109.722-109.722 0-30.231-12.226-57.606-32.003-77.451l0.003 0.003c-19.239-19.759-46.097-32.017-75.818-32.017-0.669 0-1.337 0.006-2.003 0.019l0.1-0.001z" />
<glyph unicode="&#xe906;" glyph-name="file-excel-o" d="M915.661 742.861c11.53-12.165 20.822-26.587 27.129-42.517l0.315-0.901c6.761-14.761 10.915-31.973 11.414-50.097l0.004-0.181v-658.33c0-0.061 0-0.133 0-0.205 0-30.172-24.459-54.63-54.63-54.63-0.090 0-0.18 0-0.27 0.001h-767.986c-0.061 0-0.133 0-0.205 0-30.172 0-54.63 24.459-54.63 54.63 0 0.072 0 0.144 0 0.216v-0.011 914.33c-0.005 0.276-0.008 0.601-0.008 0.927 0 14.873 6.139 28.312 16.021 37.922l0.012 0.012c9.617 9.864 23.036 15.983 37.884 15.983 0.326 0 0.65-0.003 0.975-0.009l-0.049 0.001h512c18.306-0.503 35.517-4.656 51.105-11.755l-0.826 0.337c16.83-6.621 31.252-15.913 43.478-27.5l-0.060 0.056zM661.965 882.278v-215.040h215.040c-2.633 9.057-6.964 16.9-12.665 23.532l0.069-0.083-178.842 178.842c-6.584 5.705-14.48 10.090-23.162 12.638l-0.441 0.111zM881.408 9.114v585.165h-237.722c-0.076 0-0.166-0.001-0.257-0.001-30.172 0-54.63 24.459-54.63 54.63 0 0.090 0 0.18 0.001 0.27v-0.014 237.67h-438.835v-877.67zM321.946 142.848v-60.57h160.563v60.57h-42.854l58.88 92.16c1.921 2.686 3.824 5.767 5.519 8.975l0.215 0.446q2.867 5.427 4.301 7.731t1.997 2.304h1.126c0.689-2.189 1.665-4.092 2.906-5.79l-0.039 0.056c0.823-1.657 1.674-3.065 2.626-4.397l-0.066 0.097q1.434-1.997 3.43-4.557l3.738-4.864 61.133-92.16h-43.418v-60.57h166.298v60.57h-38.861l-109.722 156.006 111.411 161.126h38.298v61.184h-159.437v-61.184h42.291l-58.88-90.88q-2.304-3.994-5.734-9.421t-5.12-7.731l-1.126-1.69h-1.126c-0.688 2.189-1.664 4.092-2.906 5.79l0.039-0.055c-2.862 4.993-6.084 9.307-9.758 13.19l0.030-0.032-60.57 90.88h43.418v61.133h-165.734v-61.184h38.861l107.981-155.443-110.848-161.69z" />
<glyph unicode="&#xe907;" glyph-name="file-zip-o" d="M442.522 740.557v73.165h-73.165v-73.165zM515.686 667.392v73.165h-73.165v-73.114zM442.522 594.227v73.216h-73.165v-73.165zM515.686 521.062v73.216h-73.165v-73.114zM915.712 742.758c11.53-12.165 20.822-26.587 27.129-42.517l0.315-0.901c6.761-14.761 10.915-31.973 11.414-50.097l0.004-0.181v-658.227c0-0.061 0-0.133 0-0.206 0-30.172-24.459-54.63-54.63-54.63-0.108 0-0.216 0-0.324 0.001h-767.983c-0.061 0-0.133 0-0.205 0-30.172 0-54.63 24.459-54.63 54.63 0 0.072 0 0.144 0 0.216v-0.011 914.33c-0.005 0.276-0.008 0.601-0.008 0.927 0 14.873 6.139 28.312 16.021 37.922l0.012 0.012c9.617 9.864 23.036 15.983 37.884 15.983 0.326 0 0.65-0.003 0.975-0.009l-0.049 0.001h512c18.306-0.503 35.517-4.656 51.105-11.755l-0.826 0.337c16.83-6.621 31.252-15.913 43.478-27.5l-0.060 0.056zM662.016 882.176v-215.040h215.040c-2.633 9.057-6.964 16.9-12.665 23.532l0.069-0.083-178.842 178.842c-6.593 5.749-14.506 10.168-23.213 12.739l-0.441 0.112zM881.459 9.011v585.267h-237.722c-0.091-0.001-0.2-0.001-0.308-0.001-30.172 0-54.63 24.459-54.63 54.63 0 0.090 0 0.181 0.001 0.271v-0.014 237.67h-73.165v-73.114h-73.165v73.114h-292.557v-877.67zM523.059 421.018l61.133-199.68c2.791-8.748 4.466-18.822 4.607-29.265l0.001-0.073c0-0.102 0.001-0.223 0.001-0.345 0-32.393-16.278-60.984-41.101-78.039l-0.321-0.208c-29.597-19.562-65.918-31.209-104.96-31.209s-75.363 11.647-105.679 31.655l0.719-0.446c-25.026 17.278-41.217 45.802-41.217 78.108 0 0.17 0 0.34 0.001 0.51v-0.026c0.087 10.624 1.747 20.829 4.757 30.436l-0.2-0.74q11.981 35.84 68.557 226.304v73.165h73.165v-73.165h45.158c0.127 0.002 0.277 0.003 0.428 0.003 8.259 0 15.866-2.794 21.927-7.488l-0.082 0.061c6.296-4.798 10.937-11.481 13.097-19.2l0.061-0.256zM442.47 155.29c0.96-0.029 2.089-0.046 3.222-0.046 17.618 0 34.296 4.021 49.168 11.195l-0.678-0.295q21.453 10.854 21.453 25.6t-21.453 25.6c-15.223 6.861-33 10.859-51.712 10.859s-36.489-3.997-52.526-11.185l0.814 0.326q-21.453-10.854-21.453-25.6t21.453-25.6c14.114-6.79 30.687-10.757 48.187-10.757 1.258 0 2.51 0.020 3.758 0.061l-0.182-0.005z" />
<glyph unicode="&#xe908;" glyph-name="file-word-o" d="M915.661 742.861c11.53-12.165 20.822-26.587 27.129-42.517l0.315-0.901c6.761-14.761 10.915-31.973 11.414-50.097l0.004-0.181v-658.33c0-0.061 0-0.133 0-0.205 0-30.172-24.459-54.63-54.63-54.63-0.090 0-0.18 0-0.27 0.001h-767.986c-0.061 0-0.133 0-0.205 0-30.172 0-54.63 24.459-54.63 54.63 0 0.072 0 0.144 0 0.216v-0.011 914.33c-0.005 0.276-0.008 0.601-0.008 0.927 0 14.873 6.139 28.312 16.021 37.922l0.012 0.012c9.617 9.864 23.036 15.983 37.884 15.983 0.326 0 0.65-0.003 0.975-0.009l-0.049 0.001h512c18.306-0.503 35.517-4.656 51.105-11.755l-0.826 0.337c16.83-6.621 31.252-15.913 43.478-27.5l-0.060 0.056zM661.965 882.278v-215.040h215.040c-2.633 9.057-6.964 16.9-12.665 23.532l0.069-0.083-178.842 178.842c-6.584 5.705-14.48 10.090-23.162 12.638l-0.441 0.111zM881.408 9.114v585.165h-237.722c-0.076 0-0.166-0.001-0.257-0.001-30.172 0-54.63 24.459-54.63 54.63 0 0.090 0 0.18 0.001 0.27v-0.014 237.67h-438.835v-877.67zM209.971 521.114v-61.133h39.987l93.696-377.702h90.88l73.165 277.146c3.813 11.841 6.28 25.519 6.851 39.684l0.010 0.303h2.304l1.69-13.722c0.748-3.054 1.449-6.933 1.942-10.876l0.055-0.541c0.716-5.621 1.811-10.646 3.295-15.501l-0.172 0.653 73.165-277.146h90.88l93.696 377.702h39.987v61.184h-171.418v-61.184h51.2l-56.32-250.266c-1.905-7.6-3.324-16.575-3.965-25.763l-0.028-0.502-1.126-11.981h-2.304l-1.69 11.981q-0.563 2.867-2.304 11.981t-2.867 14.285l-82.278 311.45h-65.126l-82.278-311.45q-1.126-5.12-2.56-13.978t-1.997-12.288l-2.304-11.981h-2.304l-1.126 11.981c-0.669 9.691-2.089 18.665-4.22 27.36l0.227-1.094-56.32 250.266h51.2v61.184z" />
<glyph unicode="&#xe909;" glyph-name="file-video-o" d="M915.661 742.861c11.53-12.165 20.822-26.587 27.129-42.517l0.315-0.901c6.761-14.761 10.915-31.973 11.414-50.097l0.004-0.181v-658.33c0-0.061 0-0.133 0-0.205 0-30.172-24.459-54.63-54.63-54.63-0.090 0-0.18 0-0.27 0.001h-767.986c-0.061 0-0.133 0-0.205 0-30.172 0-54.63 24.459-54.63 54.63 0 0.072 0 0.144 0 0.216v-0.011 914.33c-0.005 0.276-0.008 0.601-0.008 0.927 0 14.873 6.139 28.312 16.021 37.922l0.012 0.012c9.617 9.864 23.036 15.983 37.884 15.983 0.326 0 0.65-0.003 0.975-0.009l-0.049 0.001h512c18.306-0.503 35.517-4.656 51.105-11.755l-0.826 0.337c16.83-6.621 31.252-15.913 43.478-27.5l-0.060 0.056zM661.965 882.278v-215.040h215.040c-2.633 9.057-6.964 16.9-12.665 23.532l0.069-0.083-178.842 178.842c-6.584 5.705-14.48 10.090-23.162 12.638l-0.441 0.111zM881.408 9.114v585.165h-237.722c-0.076 0-0.166-0.001-0.257-0.001-30.172 0-54.63 24.459-54.63 54.63 0 0.090 0 0.18 0.001 0.27v-0.014 237.67h-438.835v-877.67zM515.686 521.114c40.149-0.568 72.545-32.965 73.113-73.060l0.001-0.054v-219.443c-0.541-40.189-32.976-72.624-73.114-73.164l-0.051-0.001h-219.443c-40.189 0.541-72.624 32.976-73.164 73.114l-0.001 0.051v219.443c0.541 40.189 32.976 72.624 73.114 73.164l0.051 0.001zM796.826 519.987c6.721-2.352 11.455-8.639 11.455-16.032 0-0.394-0.013-0.785-0.040-1.172l0.003 0.052v-329.165c0.024-0.335 0.037-0.726 0.037-1.12 0-7.393-4.734-13.68-11.336-15.996l-0.119-0.036c-2.021-0.593-4.366-0.995-6.783-1.123l-0.077-0.003c-0.193-0.007-0.419-0.012-0.647-0.012-4.877 0-9.296 1.959-12.513 5.134l0.002-0.002-151.45 152.013v51.2l151.45 152.013c3.215 3.172 7.635 5.132 12.511 5.132 0.228 0 0.454-0.004 0.679-0.013l-0.033 0.001c2.436-0.043 4.778-0.358 7.024-0.916l-0.215 0.045z" />
<glyph unicode="&#xe90a;" glyph-name="file-text-o" d="M915.661 742.861c11.53-12.165 20.822-26.587 27.129-42.517l0.315-0.901c6.761-14.761 10.915-31.973 11.414-50.097l0.004-0.181v-658.33c0-0.061 0-0.133 0-0.205 0-30.172-24.459-54.63-54.63-54.63-0.090 0-0.18 0-0.27 0.001h-767.986c-0.061 0-0.133 0-0.205 0-30.172 0-54.63 24.459-54.63 54.63 0 0.072 0 0.144 0 0.216v-0.011 914.33c-0.005 0.276-0.008 0.601-0.008 0.927 0 14.873 6.139 28.312 16.021 37.922l0.012 0.012c9.617 9.864 23.036 15.983 37.884 15.983 0.326 0 0.65-0.003 0.975-0.009l-0.049 0.001h512c18.306-0.503 35.517-4.656 51.105-11.755l-0.826 0.337c16.83-6.621 31.252-15.913 43.478-27.5l-0.060 0.056zM661.965 882.278v-215.040h215.040c-2.633 9.057-6.964 16.9-12.665 23.532l0.069-0.083-178.842 178.842c-6.584 5.705-14.48 10.090-23.162 12.638l-0.441 0.111zM881.408 9.114v585.165h-237.722c-0.076 0-0.166-0.001-0.257-0.001-30.172 0-54.63 24.459-54.63 54.63 0 0.090 0 0.18 0.001 0.27v-0.014 237.67h-438.835v-877.67zM296.243 502.835c-0.008 0.202-0.013 0.44-0.013 0.679 0 9.727 7.886 17.613 17.613 17.613 0.239 0 0.476-0.005 0.713-0.014l-0.034 0.001h402.278c0.202 0.008 0.44 0.013 0.679 0.013 9.727 0 17.613-7.886 17.613-17.613 0-0.239-0.005-0.476-0.014-0.713l0.001 0.034v-36.557c0.008-0.202 0.013-0.44 0.013-0.679 0-9.727-7.886-17.613-17.613-17.613-0.239 0-0.476 0.005-0.713 0.014l0.034-0.001h-402.278c-0.202-0.008-0.44-0.013-0.679-0.013-9.727 0-17.613 7.886-17.613 17.613 0 0.239 0.005 0.476 0.014 0.713l-0.001-0.034zM716.8 374.835c0.202 0.008 0.44 0.013 0.679 0.013 9.727 0 17.613-7.886 17.613-17.613 0-0.239-0.005-0.476-0.014-0.713l0.001 0.034v-36.557c0.008-0.202 0.013-0.44 0.013-0.679 0-9.727-7.886-17.613-17.613-17.613-0.239 0-0.476 0.005-0.713 0.014l0.034-0.001h-402.278c-0.202-0.008-0.44-0.013-0.679-0.013-9.727 0-17.613 7.886-17.613 17.613 0 0.239 0.005 0.476 0.014 0.713l-0.001-0.034v36.557c-0.008 0.202-0.013 0.44-0.013 0.679 0 9.727 7.886 17.613 17.613 17.613 0.239 0 0.476-0.005 0.713-0.014l-0.034 0.001zM716.8 228.557c0.202 0.008 0.44 0.013 0.679 0.013 9.727 0 17.613-7.886 17.613-17.613 0-0.239-0.005-0.476-0.014-0.713l0.001 0.034v-36.557c0.008-0.202 0.013-0.44 0.013-0.679 0-9.727-7.886-17.613-17.613-17.613-0.239 0-0.476 0.005-0.713 0.014l0.034-0.001h-402.278c-0.202-0.008-0.44-0.013-0.679-0.013-9.727 0-17.613 7.886-17.613 17.613 0 0.239 0.005 0.476 0.014 0.713l-0.001-0.034v36.557c-0.008 0.202-0.013 0.44-0.013 0.679 0 9.727 7.886 17.613 17.613 17.613 0.239 0 0.476-0.005 0.713-0.014l-0.034 0.001z" />
<glyph unicode="&#xe90b;" glyph-name="file-powerpoint-o" d="M915.661 742.861c11.53-12.165 20.822-26.587 27.129-42.517l0.315-0.901c6.761-14.761 10.915-31.973 11.414-50.097l0.004-0.181v-658.33c0-0.061 0-0.133 0-0.205 0-30.172-24.459-54.63-54.63-54.63-0.090 0-0.18 0-0.27 0.001h-767.986c-0.061 0-0.133 0-0.205 0-30.172 0-54.63 24.459-54.63 54.63 0 0.072 0 0.144 0 0.216v-0.011 914.33c-0.005 0.276-0.008 0.601-0.008 0.927 0 14.873 6.139 28.312 16.021 37.922l0.012 0.012c9.617 9.864 23.036 15.983 37.884 15.983 0.326 0 0.65-0.003 0.975-0.009l-0.049 0.001h512c18.306-0.503 35.517-4.656 51.105-11.755l-0.826 0.337c16.83-6.621 31.252-15.913 43.478-27.5l-0.060 0.056zM661.965 882.278v-215.040h215.040c-2.633 9.057-6.964 16.9-12.665 23.532l0.069-0.083-178.842 178.842c-6.584 5.705-14.48 10.090-23.162 12.638l-0.441 0.111zM881.408 9.114v585.165h-237.722c-0.076 0-0.166-0.001-0.257-0.001-30.172 0-54.63 24.459-54.63 54.63 0 0.090 0 0.18 0.001 0.27v-0.014 237.67h-438.835v-877.67zM314.522 142.848v-60.57h186.88v60.57h-53.146v95.232h78.285c2.336-0.094 5.078-0.147 7.833-0.147 21.251 0 41.759 3.179 61.075 9.086l-1.477-0.389c25.984 9.105 47.103 26.609 60.59 49.197l0.287 0.519c14.193 23.015 22.602 50.907 22.602 80.763 0 0.929-0.008 1.856-0.024 2.781l0.002-0.139c0.028 1.079 0.044 2.349 0.044 3.623 0 28.408-7.877 54.976-21.567 77.639l0.378-0.674c-13.438 22.080-33.009 39.26-56.346 49.408l-0.794 0.307c-19.844 6.972-42.725 11-66.546 11-2.724 0-5.436-0.053-8.134-0.157l0.388 0.012h-210.278v-60.928h52.582v-317.133zM516.25 302.848h-67.994v153.139h68.557c1.34 0.068 2.909 0.107 4.487 0.107 15.67 0 30.446-3.826 43.446-10.594l-0.522 0.247c19.56-12.607 32.327-34.281 32.327-58.936 0-2.378-0.119-4.728-0.351-7.045l0.024 0.292c0.287-2.369 0.451-5.112 0.451-7.893 0-26-14.334-48.652-35.531-60.484l-0.351-0.18c-12.158-5.499-26.362-8.704-41.313-8.704-1.136 0-2.268 0.019-3.395 0.055l0.164-0.004z" />
<glyph unicode="&#xe90c;" glyph-name="file-photo-o" d="M915.661 742.861c11.53-12.165 20.822-26.587 27.129-42.517l0.315-0.901c6.761-14.761 10.915-31.973 11.414-50.097l0.004-0.181v-658.33c0-0.061 0-0.133 0-0.205 0-30.172-24.459-54.63-54.63-54.63-0.090 0-0.18 0-0.27 0.001h-767.986c-0.061 0-0.133 0-0.205 0-30.172 0-54.63 24.459-54.63 54.63 0 0.072 0 0.144 0 0.216v-0.011 914.33c-0.005 0.276-0.008 0.601-0.008 0.927 0 14.873 6.139 28.312 16.021 37.922l0.012 0.012c9.617 9.864 23.036 15.983 37.884 15.983 0.326 0 0.65-0.003 0.975-0.009l-0.049 0.001h512c18.306-0.503 35.517-4.656 51.105-11.755l-0.826 0.337c16.83-6.621 31.252-15.913 43.478-27.5l-0.060 0.056zM661.965 882.278v-215.040h215.040c-2.633 9.057-6.964 16.9-12.665 23.532l0.069-0.083-178.842 178.842c-6.584 5.705-14.48 10.090-23.162 12.638l-0.441 0.111zM881.408 9.114v585.165h-237.722c-0.076 0-0.166-0.001-0.257-0.001-30.172 0-54.63 24.459-54.63 54.63 0 0.090 0 0.18 0.001 0.27v-0.014 237.67h-438.835v-877.67zM808.243 265.114v-182.835h-585.165v109.722l109.722 109.722 73.165-73.165 219.392 219.443zM332.8 374.835c-0.137-0.001-0.299-0.001-0.462-0.001-60.343 0-109.261 48.918-109.261 109.261 0 0.162 0 0.325 0.001 0.487v-0.025c0.156 60.48 49.22 109.448 109.721 109.448 60.598 0 109.722-49.124 109.722-109.722 0-30.231-12.226-57.606-32.003-77.451l0.003 0.003c-19.239-19.759-46.097-32.017-75.818-32.017-0.669 0-1.337 0.006-2.003 0.019l0.1-0.001z" />
<glyph unicode="&#xe90d;" glyph-name="more-2" d="M128 576c-70.692 0-128-57.308-128-128s57.308-128 128-128c70.692 0 128 57.308 128 128v0c-0.218 70.605-57.395 127.782-127.979 128h-0.021zM896 576c-70.692 0-128-57.308-128-128s57.308-128 128-128c70.692 0 128 57.308 128 128v0c-0.218 70.605-57.395 127.782-127.979 128h-0.021zM512 576c-70.692 0-128-57.308-128-128s57.308-128 128-128c70.692 0 128 57.308 128 128v0c-0.218 70.605-57.395 127.782-127.979 128h-0.021z" />
<glyph unicode="&#xe90e;" glyph-name="eclaim" horiz-adv-x="869" d="M772.85 857.642h-202.902c-17.171 59.585-71.208 102.433-135.252 102.433s-118.081-42.848-135.007-101.441l-0.245-0.992h-202.855c-53.748-1.842-96.619-45.856-96.619-99.884 0-0.87 0.011-1.738 0.033-2.602l-0.003 0.128v-716.786c-0.020-0.737-0.031-1.604-0.031-2.475 0-54.027 42.872-98.042 96.451-99.879l0.168-0.005h676.262c53.748 1.842 96.619 45.856 96.619 99.884 0 0.87-0.011 1.738-0.033 2.602l0.003-0.128v716.786c0.020 0.737 0.031 1.604 0.031 2.475 0 54.027-42.872 98.042-96.451 99.879l-0.168 0.005zM434.743 857.642c26.511-2.691 47.179-24.356 48.291-51.071l0.004-0.108c0.011-0.395 0.018-0.861 0.018-1.327 0-26.996-21.447-48.982-48.233-49.85l-0.080-0.002c-0.429-0.014-0.934-0.022-1.441-0.022-25.978 0-47.038 21.060-47.038 47.038 0 1.466 0.067 2.915 0.198 4.347l-0.014-0.184c-0.010 0.369-0.015 0.803-0.015 1.239 0 26.997 21.41 48.994 48.177 49.938l0.086 0.002zM193.224 652.926h482.991v-102.358h-482.991zM193.224 448.209h482.991v-102.358h-482.991zM434.743 141.135h-241.519v102.358h241.519zM555.712 43.848h-62.811v66.579l188.385 199.691 62.811-66.579zM792.391 294.719l-28.986-30.707-62.811 66.579 28.986 30.707c3.358 2.403 7.548 3.842 12.074 3.842s8.716-1.439 12.137-3.885l-0.063 0.043 38.663-40.943c4.477-2.635 7.434-7.429 7.434-12.915 0-5.579-3.059-10.444-7.592-13.008l-0.074-0.039z" />
<glyph unicode="&#xe90f;" glyph-name="phonelock" d="M810.098 550.4v153.6c0 143.36-143.36 256-286.72 256s-286.72-112.64-286.72-256v-153.6c-65.923-4.62-118.26-56.957-122.856-122.462l-0.024-0.418v-358.4c0.268-69.899 53.978-127.169 122.379-133.085l0.501-0.035h563.2c69.899 0.268 127.169 53.978 133.085 122.379l0.035 0.501v358.4c-0.268 69.899-53.978 127.169-122.379 133.085l-0.501 0.035zM676.978 550.4h-307.2v153.6c3.842 74.651 65.306 133.725 140.568 133.725 4.589 0 9.126-0.22 13.602-0.649l-0.57 0.044c3.906 0.385 8.443 0.605 13.032 0.605 75.262 0 136.726-59.074 140.554-133.383l0.014-0.342z" />
<glyph unicode="&#xe910;" glyph-name="submissionhistory" horiz-adv-x="869" d="M772.85 857.642h-202.902c-17.171 59.585-71.208 102.433-135.252 102.433s-118.081-42.848-135.007-101.441l-0.245-0.992h-202.855c-53.748-1.842-96.619-45.856-96.619-99.884 0-0.87 0.011-1.738 0.033-2.602l-0.003 0.128v-716.879c-0.020-0.737-0.031-1.604-0.031-2.475 0-54.027 42.872-98.042 96.451-99.879l0.168-0.005h676.262c53.748 1.842 96.619 45.856 96.619 99.884 0 0.87-0.011 1.738-0.033 2.602l0.003-0.128v716.879c0.020 0.737 0.031 1.604 0.031 2.475 0 54.027-42.872 98.042-96.451 99.879l-0.168 0.005zM434.743 857.642c26.511-2.691 47.179-24.356 48.291-51.071l0.004-0.108c0.059-0.897 0.093-1.944 0.093-2.999 0-26.724-21.664-48.387-48.387-48.387s-48.387 21.664-48.387 48.387c0 1.055 0.034 2.103 0.1 3.141l-0.007-0.142c1.113 26.809 21.757 48.466 48.020 51.16l0.228 0.019zM434.743 110.102c-70.019 1.777-132.937 30.778-178.844 76.765l-0.004 0.004 38.663 40.943c34.956-37.769 84.758-61.364 140.073-61.461h0.018c110.975 6.374 198.555 97.923 198.555 209.927s-87.58 203.553-197.994 209.901l-0.561 0.026c-110.21-3.888-198.076-94.167-198.076-204.969 0-1.744 0.022-3.482 0.065-5.215l-0.005 0.257h82.166l-111.105-117.712v5.118l-111.105 112.64h82.119c-0.101 2.697-0.159 5.865-0.159 9.046 0 140.018 111.865 253.908 251.098 257.173l0.304 0.006c139.536-3.27 251.402-117.16 251.402-257.178 0-3.181-0.058-6.349-0.172-9.502l0.013 0.456c0.318-4.723 0.499-10.239 0.499-15.796 0-137.105-110.169-248.479-246.812-250.426l-0.183-0.002zM545.848 304.675l-19.308-35.825-120.969 76.815v148.419h43.456v-127.994z" />
<glyph unicode="&#xe911;" glyph-name="print" d="M236.288 42.342h551.424v157.542h-551.424zM236.288 436.173h551.424v236.288h-98.458c-0.076 0-0.166-0.001-0.257-0.001-32.49 0-58.829 26.339-58.829 58.829 0 0.090 0 0.18 0.001 0.27v-0.014 98.458h-393.882zM945.254 396.8c0.002 0.155 0.003 0.337 0.003 0.52 0 22.056-17.88 39.936-39.936 39.936s-39.936-17.88-39.936-39.936c0-22.056 17.88-39.936 39.936-39.936 11.038 0 21.030 4.478 28.259 11.717v0c7.2 6.9 11.675 16.595 11.675 27.335 0 0.128-0.001 0.256-0.002 0.384v-0.020zM1024 396.8v-256c-0.142-10.829-8.883-19.57-19.698-19.712h-137.844v-98.458c0-0.076 0.001-0.166 0.001-0.257 0-32.49-26.339-58.829-58.829-58.829-0.090 0-0.18 0-0.27 0.001h-590.732c-0.076 0-0.166-0.001-0.257-0.001-32.49 0-58.829 26.339-58.829 58.829 0 0.090 0 0.18 0.001 0.27v-0.014 98.458h-137.83c-10.829 0.142-19.57 8.883-19.712 19.698v256.014c0.318 65.135 53.035 117.851 118.139 118.169h39.404v334.746c0 0.076-0.001 0.166-0.001 0.257 0 32.49 26.339 58.829 58.829 58.829 0.090 0 0.18 0 0.27-0.001h413.528c39.049-2.136 74.115-17.634 101.059-41.958l-0.144 0.128 93.542-93.542c24.196-26.801 39.695-61.866 41.812-100.496l0.018-0.419v-157.542h39.373c65.135-0.318 117.851-53.035 118.169-118.139v-0.031z" />
<glyph unicode="&#xe912;" glyph-name="refresh" horiz-adv-x="1023" d="M872.96 809.6c-92.709 92.985-220.932 150.516-362.592 150.516-282.77 0-512-229.23-512-512s229.23-512 512-512c237.241 0 436.796 161.357 494.906 380.312l0.806 3.573h-133.12c-54.308-150.42-195.844-256-362.039-256-212.077 0-384 171.923-384 384s171.923 384 384 384c0.154 0 0.309 0 0.463 0h-0.024c105.818-0.176 201.427-43.742 270.013-113.851l0.067-0.069-206.080-206.080h448v448z" />
<glyph unicode="&#xe913;" glyph-name="member" d="M512 448c141.385 0 256 114.615 256 256s-114.615 256-256 256c-141.385 0-256-114.615-256-256v0c0-141.385 114.615-256 256-256v0zM512 320c-170.88 0-512-85.76-512-256v-128h1024v128c0 170.24-341.12 256-512 256z" />
<glyph unicode="&#xe914;" glyph-name="list" d="M0 106.667h1024v113.778h-1024zM0 391.111h1024v113.778h-1024zM0 789.333v-113.778h1024v113.778z" />
<glyph unicode="&#xe915;" glyph-name="members" d="M698.182 494.545c77.119 0 139.636 62.517 139.636 139.636s-62.517 139.636-139.636 139.636c-77.119 0-139.636-62.517-139.636-139.636v0c-0.001-0.18-0.001-0.393-0.001-0.606 0-76.785 62.246-139.031 139.031-139.031 0.213 0 0.426 0 0.639 0.001h-0.033zM325.818 494.545c77.119 0 139.636 62.517 139.636 139.636s-62.517 139.636-139.636 139.636c-77.119 0-139.636-62.517-139.636-139.636v0c-0.001-0.18-0.001-0.393-0.001-0.606 0-76.785 62.246-139.031 139.031-139.031 0.213 0 0.426 0 0.639 0.001h-0.033zM325.818 401.455c-108.451 0-325.818-54.458-325.818-162.909v-116.364h651.636v116.364c0 108.451-217.367 162.909-325.818 162.909zM698.182 401.455c-13.498 0-28.858-0.931-45.149-2.327 53.937-34.35 89.694-93.082 91.688-160.293l0.007-0.289v-116.364h279.273v116.364c0 108.451-217.367 162.909-325.818 162.909z" />
<glyph unicode="&#xe916;" glyph-name="prev" d="M1024 512h-778.88l357.76 357.76-90.88 90.24-512-512 512-512 90.24 90.24-357.12 357.76h778.88z" />
<glyph unicode="&#xe917;" glyph-name="search-3" d="M731.847 315.975h-46.253l-16.393 15.808c57.13 66.262 91.923 153.187 91.923 248.239 0 210.501-170.645 381.146-381.146 381.146s-381.146-170.645-381.146-381.146c0-210.501 170.645-381.146 381.146-381.146 95.051 0 181.976 34.794 248.733 92.34l-0.494-0.417 15.808-16.393v-46.253l292.739-292.153 87.236 87.236zM380.56 315.975c-145.508 0-263.465 117.957-263.465 263.465s117.957 263.465 263.465 263.465c145.508 0 263.465-117.957 263.465-263.465v0c0-0.105 0-0.228 0-0.352 0-145.314-117.8-263.114-263.114-263.114-0.124 0-0.247 0-0.371 0h0.019z" />
<glyph unicode="&#xe918;" glyph-name="verticalalign" d="M284.444 504.889h170.667v-568.889h113.778v568.889h170.667l-227.556 227.556zM56.889 960v-113.778h910.222v113.778z" />
<glyph unicode="&#xe919;" glyph-name="up" d="M0 192l512 512 512-512z" />
<glyph unicode="&#xe91a;" glyph-name="down" d="M0 704l512-512 512 512z" />
<glyph unicode="&#xe91b;" glyph-name="mini-menu" d="M349.091 168.727h651.636v93.091h-651.636zM349.091 401.455h651.636v93.091h-651.636zM349.091 727.273v-93.091h651.636v93.091zM209.455 215.273l-209.455 209.455 209.455 209.455z" />
<glyph unicode="&#xe91c;" glyph-name="grid" d="M0 704h256v256h-256zM384-64h256v256h-256zM0-64h256v256h-256zM0 320h256v256h-256zM384 320h256v256h-256zM768 960v-256h256v256zM384 704h256v256h-256zM768 320h256v256h-256zM768-64h256v256h-256z" />
<glyph unicode="&#xe91d;" glyph-name="close" d="M1024 856.869l-103.131 103.131-408.869-408.869-408.869 408.869-103.131-103.131 408.869-408.869-408.869-408.869 103.131-103.131 408.869 408.869 408.869-408.869 103.131 103.131-408.869 408.869z" />
<glyph unicode="&#xe91e;" glyph-name="calendar" d="M768 396.8h-256v-256h256zM716.8 960v-102.4h-409.6v102.4h-102.4v-102.4h-51.2c-56.278-0.029-101.889-45.657-101.889-101.939 0-0.162 0-0.324 0.001-0.486v0.025l-0.512-716.8c0-56.554 45.846-102.4 102.4-102.4v0h716.8c56.484 0.174 102.226 45.916 102.4 102.383v716.817c-0.174 56.484-45.916 102.226-102.383 102.4h-51.217v102.4zM870.4 38.4h-716.8v563.2h716.8z" />
<glyph unicode="&#xe91f;" glyph-name="arrow-up" d="M512 746.667l-512-512 120.32-120.32 391.68 390.827 391.68-390.827 120.32 120.32z" />
<glyph unicode="&#xe920;" glyph-name="arrow-down" d="M903.68 746.667l-391.68-390.827-391.68 390.827-120.32-120.32 512-512 512 512z" />
<glyph unicode="&#xe921;" glyph-name="list-ul" d="M219.423 162.755c0.012-0.597 0.019-1.3 0.019-2.005 0-29.72-12.254-56.578-31.986-75.796l-0.023-0.022c-19.241-19.755-46.099-32.009-75.819-32.009-0.705 0-1.409 0.007-2.111 0.021l0.105-0.002c-0.597-0.012-1.3-0.019-2.005-0.019-29.72 0-56.578 12.254-75.796 31.986l-0.022 0.023c-19.778 19.942-31.999 47.405-31.999 77.722s12.222 57.779 32.007 77.729l-0.007-0.008c19.241 19.755 46.099 32.009 75.819 32.009 0.705 0 1.409-0.007 2.111-0.021l-0.105 0.002c0.597 0.012 1.3 0.019 2.005 0.019 29.72 0 56.578-12.254 75.796-31.986l0.022-0.023c19.752-19.241 32.005-46.097 32.005-75.815 0-0.634-0.006-1.267-0.017-1.899l0.001 0.095zM219.423 455.332c0.012-0.597 0.019-1.3 0.019-2.005 0-29.72-12.254-56.578-31.986-75.796l-0.023-0.022c-19.241-19.755-46.099-32.009-75.819-32.009-0.705 0-1.409 0.007-2.111 0.021l0.105-0.002c-0.597-0.012-1.3-0.019-2.005-0.019-29.72 0-56.578 12.254-75.796 31.986l-0.022 0.023c-19.778 19.942-31.999 47.405-31.999 77.722s12.222 57.779 32.007 77.729l-0.007-0.008c19.241 19.755 46.099 32.009 75.819 32.009 0.705 0 1.409-0.007 2.111-0.021l-0.105 0.002c0.597 0.012 1.3 0.019 2.005 0.019 29.72 0 56.578-12.254 75.796-31.986l0.022-0.023c19.752-19.241 32.005-46.097 32.005-75.815 0-0.634-0.006-1.267-0.017-1.899l0.001 0.095zM1024 217.6v-109.568c-0.159-10.025-8.243-18.11-18.253-18.268h-694.901c-10.025 0.159-18.11 8.243-18.268 18.253v109.747c0.159 10.025 8.243 18.11 18.253 18.268h694.901c10.025-0.159 18.11-8.243 18.268-18.253v-0.015zM219.423 747.868c0.012-0.597 0.019-1.3 0.019-2.005 0-29.72-12.254-56.578-31.986-75.796l-0.023-0.022c-19.241-19.755-46.099-32.009-75.819-32.009-0.705 0-1.409 0.007-2.111 0.021l0.105-0.002c-0.597-0.012-1.3-0.019-2.005-0.019-29.72 0-56.578 12.254-75.796 31.986l-0.022 0.023c-19.778 19.942-31.999 47.405-31.999 77.722s12.222 57.779 32.007 77.729l-0.007-0.008c19.241 19.755 46.099 32.009 75.819 32.009 0.705 0 1.409-0.007 2.111-0.021l-0.105 0.002c0.597 0.012 1.3 0.019 2.005 0.019 29.72 0 56.578-12.254 75.796-31.986l0.022-0.023c19.752-19.241 32.005-46.097 32.005-75.815 0-0.634-0.006-1.267-0.017-1.899l0.001 0.095zM1024 510.177v-109.732c-0.159-10.025-8.243-18.11-18.253-18.268h-694.901c-10.025 0.159-18.11 8.243-18.268 18.253v109.747c0.159 10.025 8.243 18.11 18.253 18.268h694.901c10.025-0.159 18.11-8.243 18.268-18.253v-0.015zM1024 802.755v-109.732c-0.159-10.025-8.243-18.11-18.253-18.268h-694.901c-10.025 0.159-18.11 8.243-18.268 18.253v109.747c0.159 10.025 8.243 18.11 18.253 18.268h694.901c10.025-0.159 18.11-8.243 18.268-18.253v-0.015z" />
<glyph unicode="&#xe922;" glyph-name="magnifying" d="M708.915 526.746c0.016 1.088 0.025 2.372 0.025 3.658 0 74.901-31.014 142.559-80.9 190.832l-0.073 0.070c-48.343 49.959-116.001 80.972-190.902 80.972-1.286 0-2.57-0.009-3.852-0.027l0.194 0.002c-1.088 0.016-2.372 0.025-3.658 0.025-74.901 0-142.559-31.014-190.832-80.9l-0.070-0.073c-49.959-48.343-80.972-116.001-80.972-190.902 0-1.286 0.009-2.57 0.027-3.852l-0.002 0.194c-0.016-1.088-0.025-2.372-0.025-3.658 0-74.901 31.014-142.559 80.9-190.832l0.073-0.070c48.343-49.959 116.001-80.972 190.902-80.972 1.286 0 2.57 0.009 3.852 0.027l-0.194-0.002c1.088-0.016 2.372-0.025 3.658-0.025 74.901 0 142.559 31.014 190.832 80.9l0.070 0.073c49.959 48.343 80.972 116.001 80.972 190.902 0 1.286-0.009 2.57-0.027 3.852l0.002-0.194zM1024 14.746c-0.625-43.236-35.509-78.121-78.686-78.745l-0.059-0.001c-0.514-0.013-1.119-0.020-1.725-0.020-21.182 0-40.263 8.995-53.632 23.373l-0.042 0.045-211.098 210.483c-67.359-47.736-151.229-76.307-241.772-76.307-1.402 0-2.803 0.007-4.201 0.021l0.214-0.002c-0.36-0.001-0.787-0.002-1.213-0.002-60.368 0-117.802 12.563-169.829 35.218l2.748-1.066c-104.862 44.032-186.588 125.808-229.512 227.915l-1.042 2.793c-21.596 49.67-34.16 107.528-34.16 168.32s12.564 118.65 35.237 171.119l-1.077-2.799c44.001 104.953 125.805 186.758 227.966 229.716l2.793 1.042c49.67 21.596 107.528 34.16 168.32 34.16s118.65-12.564 171.119-35.237l-2.799 1.077c104.953-44.001 186.758-125.805 229.716-227.966l1.042-2.793c21.589-49.28 34.152-106.714 34.152-167.081 0-0.427-0.001-0.853-0.002-1.28v0.066c0.012-1.185 0.019-2.586 0.019-3.988 0-90.543-28.571-174.413-77.19-243.086l0.883 1.314 211.098-211.098c14.037-13.701 22.743-32.81 22.743-53.953 0-0.436-0.004-0.872-0.011-1.307l0.001 0.065z" />
<glyph unicode="&#xe923;" glyph-name="report" d="M1024 634.182c-0.158-51.349-41.742-92.933-93.076-93.091h-0.015c-0.367-0.006-0.8-0.010-1.233-0.010-8.023 0-15.768 1.194-23.065 3.414l0.561-0.147-165.702-165.236c2.074-6.872 3.268-14.77 3.268-22.947 0-0.442-0.003-0.883-0.010-1.324l0.001 0.066c0-51.413-41.678-93.091-93.091-93.091s-93.091 41.678-93.091 93.091v0c-0.006 0.374-0.010 0.815-0.010 1.257 0 8.177 1.194 16.074 3.417 23.528l-0.149-0.582-118.691 118.691c-7.257-2.069-15.591-3.259-24.204-3.259s-16.947 1.19-24.848 3.414l0.645-0.155-211.782-212.247c2.074-6.737 3.268-14.481 3.268-22.505 0-0.434-0.003-0.867-0.010-1.299l0.001 0.065c0-51.413-41.678-93.091-93.091-93.091s-93.091 41.678-93.091 93.091c0 51.413 41.678 93.091 93.091 93.091v0c0.367 0.006 0.8 0.010 1.233 0.010 8.023 0 15.768-1.194 23.065-3.414l-0.561 0.147 212.247 211.782c-2.074 6.872-3.268 14.77-3.268 22.947 0 0.442 0.003 0.883 0.010 1.324l-0.001-0.066c0 51.413 41.678 93.091 93.091 93.091s93.091-41.678 93.091-93.091v0c0.006-0.374 0.010-0.815 0.010-1.257 0-8.177-1.194-16.074-3.417-23.528l0.149 0.582 118.691-118.691c7.257 2.069 15.591 3.259 24.204 3.259s16.947-1.19 24.848-3.414l-0.645 0.155 165.236 165.702c-2.074 6.737-3.268 14.481-3.268 22.505 0 0.434 0.003 0.867 0.010 1.299l-0.001-0.065c0 51.413 41.678 93.091 93.091 93.091s93.091-41.678 93.091-93.091v0z" />
<glyph unicode="&#xe924;" glyph-name="map-marker" d="M682.667 618.667c0 0.011 0 0.024 0 0.036 0 94.257-76.41 170.667-170.667 170.667s-170.667-76.41-170.667-170.667c0-94.257 76.41-170.667 170.667-170.667 47.119 0 89.779 19.095 120.662 49.969l-0.001-0.001c30.867 29.924 50.025 71.773 50.025 118.096 0 0.902-0.007 1.802-0.022 2.701l0.002-0.135zM853.333 618.667c0.116-3.012 0.182-6.548 0.182-10.1 0-39.5-8.164-77.094-22.897-111.185l0.699 1.818-242.688-515.982c-7.088-14.585-17.945-26.393-31.322-34.442l-0.365-0.204c-12.811-7.955-28.354-12.67-44.999-12.67s-32.188 4.715-45.368 12.883l0.369-0.213c-13.632 8.146-24.312 19.997-30.808 34.167l-0.197 0.479-243.314 515.982c-14.001 32.239-22.145 69.79-22.145 109.243 0 3.595 0.068 7.175 0.202 10.738l-0.015-0.514c0 188.513 152.82 341.333 341.333 341.333s341.333-152.82 341.333-341.333v0z" />
<glyph unicode="&#xe925;" glyph-name="lock" horiz-adv-x="791" d="M698.182 960h-465.455c-51.349-0.158-92.933-41.742-93.091-93.076v-139.651h93.091v93.091h465.455v-744.727h-465.455v93.091h-93.091v-139.636c0.158-51.349 41.742-92.933 93.076-93.091h465.47c51.349 0.158 92.933 41.742 93.091 93.076v837.833c-0.158 51.349-41.742 92.933-93.076 93.091h-0.015zM316.509 494.545v69.818c-6.048 65.505-60.732 116.399-127.303 116.399-1.063 0-2.124-0.013-3.181-0.039l0.157 0.003c-0.9 0.023-1.961 0.036-3.024 0.036-66.571 0-121.255-50.894-127.266-115.896l-0.038-0.503v-69.818c-29.97-2.089-53.766-25.885-55.844-55.666l-0.011-0.189v-162.909c0.112-31.776 24.531-57.814 55.627-60.493l0.227-0.016h256c31.776 0.112 57.814 24.531 60.493 55.627l0.016 0.227v162.909c-0.112 31.776-24.531 57.814-55.627 60.493l-0.227 0.016zM256 494.545h-139.636v69.818c1.761 33.934 29.705 60.782 63.919 60.782 2.077 0 4.131-0.099 6.157-0.292l-0.258 0.020c1.768 0.174 3.822 0.272 5.899 0.272 34.214 0 62.158-26.848 63.913-60.625l0.006-0.156z" />
<glyph unicode="&#xe926;" glyph-name="social" d="M819.2 239.104c-38.782-0.175-74.037-15.13-100.454-39.517l0.102 0.093-365.056 212.48c2.68 10.676 4.345 22.998 4.605 35.666l0.003 0.174c-0.263 12.842-1.928 25.164-4.848 36.991l0.24-1.151 360.96 210.432c27.243-25.271 63.856-40.776 104.089-40.776 84.633 0 153.242 68.609 153.242 153.242s-68.609 153.242-153.242 153.242c-84.633 0-153.242-68.609-153.242-153.242 0-0.119 0-0.237 0-0.356v0.018c0.263-12.842 1.928-25.164 4.848-36.991l-0.24 1.151-360.96-210.432c-27.389 25.691-64.34 41.472-104.977 41.472-84.831 0-153.6-68.769-153.6-153.6s68.769-153.6 153.6-153.6c40.637 0 77.589 15.781 105.061 41.549l-0.083-0.077 364.544-212.992c-2.532-9.971-4.021-21.434-4.096-33.232v-0.048c0-82.569 66.935-149.504 149.504-149.504s149.504 66.935 149.504 149.504c0 82.569-66.935 149.504-149.504 149.504v0z" />
<glyph unicode="&#xe927;" glyph-name="logout" d="M403.342 243.769l80.213-80.213 284.444 284.444-284.444 284.444-80.213-80.213 146.773-147.342h-550.116v-113.778h550.116zM910.222 960h-796.444c-62.838 0-113.778-50.94-113.778-113.778v0-227.556h113.778v227.556h796.444v-796.444h-796.444v227.556h-113.778v-227.556c0-62.838 50.94-113.778 113.778-113.778v0h796.444c62.76 0.193 113.584 51.018 113.778 113.759v796.463c-0.193 62.76-51.018 113.584-113.759 113.778h-0.019z" />
<glyph unicode="&#xe928;" glyph-name="subdirectory" d="M963.765 297.412l-361.412-361.412-85.534 85.534 216.245 215.642h-672.828v722.824h120.471v-602.353h552.358l-216.245 215.642 85.534 85.534z" />
<glyph unicode="&#xe929;" glyph-name="tick" d="M318.578 214.756l-238.933 238.933-79.644-79.644 318.578-318.578 682.667 682.667-79.644 79.644z" />
<glyph unicode="&#xe92a;" glyph-name="download" d="M933.647 598.588h-240.941v361.412h-361.412v-361.412h-240.941l421.647-421.647zM90.353 56.471v-120.471h843.294v120.471z" />
<glyph unicode="&#xe92b;" glyph-name="file-pdf-o" d="M915.661 742.861c11.53-12.165 20.822-26.587 27.129-42.517l0.315-0.901c6.761-14.761 10.915-31.973 11.414-50.097l0.004-0.181v-658.33c0-0.061 0-0.133 0-0.205 0-30.172-24.459-54.63-54.63-54.63-0.090 0-0.18 0-0.27 0.001h-767.986c-0.061 0-0.133 0-0.205 0-30.172 0-54.63 24.459-54.63 54.63 0 0.072 0 0.144 0 0.216v-0.011 914.33c-0.005 0.276-0.008 0.601-0.008 0.927 0 14.873 6.139 28.312 16.021 37.922l0.012 0.012c9.617 9.864 23.036 15.983 37.884 15.983 0.326 0 0.65-0.003 0.975-0.009l-0.049 0.001h512c18.306-0.503 35.517-4.656 51.105-11.755l-0.826 0.337c16.83-6.621 31.252-15.913 43.478-27.5l-0.060 0.056zM661.965 882.278v-215.040h215.040c-2.633 9.057-6.964 16.9-12.665 23.532l0.069-0.083-178.842 178.842c-6.584 5.705-14.48 10.090-23.162 12.638l-0.441 0.111zM881.408 9.114v585.165h-237.722c-0.076 0-0.166-0.001-0.257-0.001-30.172 0-54.63 24.459-54.63 54.63 0 0.090 0 0.18 0.001 0.27v-0.014 237.67h-438.835v-877.67zM587.674 347.955c13.909-10.775 29.593-21.35 45.957-30.887l2.069-1.113c20.061 2.53 43.288 3.98 66.851 3.994h0.017q84.019 0 101.12-28.006c3.080-4.391 4.922-9.845 4.922-15.729 0-5.149-1.41-9.968-3.865-14.093l0.070 0.127c-0.032-0.452-0.243-0.848-0.561-1.125l-1.128-1.128v-0.563q-3.43-21.709-40.55-21.709c-23.707 0.734-46.197 4.856-67.353 11.897l1.663-0.48c-28.622 8.662-53.236 18.958-76.53 31.402l2.239-1.092c-82.904-8.245-158.886-24.981-231.25-49.548l7.25 2.137q-87.45-149.709-138.24-149.709c-0.053 0-0.116 0-0.179 0-5.787 0-11.229 1.479-15.968 4.081l0.172-0.087-13.978 6.81q-0.563 0.563-3.43 2.867c-2.759 3.814-4.413 8.585-4.413 13.742 0 2.403 0.359 4.721 1.026 6.906l-0.044-0.167c6.486 20.588 17.518 38.166 31.973 52.249l0.027 0.026c21.363 22.033 46.273 40.469 73.84 54.418l1.578 0.724c1.439 1.211 3.313 1.947 5.358 1.947 3.542 0 6.569-2.207 7.781-5.321l0.019-0.057c0.652-0.567 1.076-1.382 1.126-2.296v-0.008q29.696 48.589 61.133 112.64c22.127 42.275 42.368 91.919 57.946 143.586l1.599 6.174c-8.211 26.437-14.367 57.418-17.276 89.337l-0.132 1.799c-0.913 7.563-1.433 16.32-1.433 25.199 0 16.888 1.884 33.336 5.453 49.145l-0.282-1.486q6.298 22.835 24.013 22.835h12.595c0.466 0.032 1.009 0.050 1.557 0.050 7.393 0 14.009-3.327 18.432-8.565l0.029-0.036c4.6-7.004 7.337-15.588 7.337-24.811 0-5.021-0.811-9.853-2.31-14.372l0.093 0.322c-0.476-1.751-1.269-3.275-2.322-4.581l0.018 0.024c0.362-1.222 0.571-2.625 0.571-4.078 0-0.168-0.003-0.336-0.008-0.503l0.001 0.024v-17.152c0-0.201 0-0.441 0-0.68 0-38.475-2.904-76.272-8.504-113.184l0.517 4.142c15.321-54.109 44.377-100.186 83.192-135.795l0.213-0.193zM258.509 113.101c32.79 23.472 59.225 53.738 77.623 88.877l0.662 1.389c-18.612-14.48-35.004-30.239-49.625-47.543l-0.397-0.483c-10.852-12.22-20.272-26.089-27.765-41.089l-0.497-1.1zM485.939 638.822c-3.063-12.067-4.821-25.919-4.821-40.182 0-12.479 1.346-24.644 3.899-36.357l-0.205 1.122q0.563 3.994 3.994 25.139 0 1.69 3.994 24.576c0.489 1.748 1.281 3.27 2.324 4.583l-0.020-0.026c-0.32 0.278-0.531 0.675-0.563 1.121v0.005c0.002 0.022 0.002 0.048 0.002 0.075 0 0.307-0.118 0.587-0.31 0.797l0.001-0.001c-0.192 0.209-0.31 0.489-0.31 0.796 0 0.026 0.001 0.052 0.003 0.078v-0.004c-0.085 7.805-2.873 14.942-7.47 20.537l0.046-0.057c-0.032-0.452-0.243-0.848-0.561-1.125l-0.002-0.002zM415.078 261.12c46.264 19.007 100.729 34.98 157.169 45.301l5.135 0.779c-2.835 1.858-5.255 3.643-7.575 5.547l0.151-0.12c-3.387 2.545-6.375 5.078-9.208 7.772l0.043-0.041c-30.264 27.676-54.741 61.12-71.778 98.656l-0.772 1.9c-14.609-43.999-30.648-81.232-49.414-116.805l2.003 4.165q-17.152-31.693-25.754-47.155zM784.23 270.285c-18.052 9.391-39.419 14.898-62.072 14.898-6.313 0-12.525-0.428-18.611-1.256l0.708 0.079c20.834-8.845 44.987-14.601 70.303-16.001l0.558-0.025c0.624-0.025 1.357-0.040 2.094-0.040 2.875 0 5.698 0.219 8.455 0.642l-0.308-0.039q0 0.614-1.126 1.741z" />
<glyph unicode="&#xe92c;" glyph-name="file-movie-o" d="M915.661 742.861c11.53-12.165 20.822-26.587 27.129-42.517l0.315-0.901c6.761-14.761 10.915-31.973 11.414-50.097l0.004-0.181v-658.33c0-0.061 0-0.133 0-0.205 0-30.172-24.459-54.63-54.63-54.63-0.090 0-0.18 0-0.27 0.001h-767.986c-0.061 0-0.133 0-0.205 0-30.172 0-54.63 24.459-54.63 54.63 0 0.072 0 0.144 0 0.216v-0.011 914.33c-0.005 0.276-0.008 0.601-0.008 0.927 0 14.873 6.139 28.312 16.021 37.922l0.012 0.012c9.617 9.864 23.036 15.983 37.884 15.983 0.326 0 0.65-0.003 0.975-0.009l-0.049 0.001h512c18.306-0.503 35.517-4.656 51.105-11.755l-0.826 0.337c16.83-6.621 31.252-15.913 43.478-27.5l-0.060 0.056zM661.965 882.278v-215.040h215.040c-2.633 9.057-6.964 16.9-12.665 23.532l0.069-0.083-178.842 178.842c-6.584 5.705-14.48 10.090-23.162 12.638l-0.441 0.111zM881.408 9.114v585.165h-237.722c-0.076 0-0.166-0.001-0.257-0.001-30.172 0-54.63 24.459-54.63 54.63 0 0.090 0 0.18 0.001 0.27v-0.014 237.67h-438.835v-877.67zM515.686 521.114c40.149-0.568 72.545-32.965 73.113-73.060l0.001-0.054v-219.443c-0.541-40.189-32.976-72.624-73.114-73.164l-0.051-0.001h-219.443c-40.189 0.541-72.624 32.976-73.164 73.114l-0.001 0.051v219.443c0.541 40.189 32.976 72.624 73.114 73.164l0.051 0.001zM796.826 519.987c6.721-2.352 11.455-8.639 11.455-16.032 0-0.394-0.013-0.785-0.040-1.172l0.003 0.052v-329.165c0.024-0.335 0.037-0.726 0.037-1.12 0-7.393-4.734-13.68-11.336-15.996l-0.119-0.036c-2.021-0.593-4.366-0.995-6.783-1.123l-0.077-0.003c-0.193-0.007-0.419-0.012-0.647-0.012-4.877 0-9.296 1.959-12.513 5.134l0.002-0.002-151.45 152.013v51.2l151.45 152.013c3.215 3.172 7.635 5.132 12.511 5.132 0.228 0 0.454-0.004 0.679-0.013l-0.033 0.001c2.436-0.043 4.778-0.358 7.024-0.916l-0.215 0.045z" />
<glyph unicode="&#xe92d;" glyph-name="circle-user" d="M245.76 58.88h-40.96v76.8c0 102.113 204.8 153.559 307.2 153.559s307.2-51.446 307.2-153.559v-76.8h-40.96c0-45.056-119.235-81.92-266.24-81.92s-266.24 36.864-266.24 81.92zM358.4 519.68c0 84.831 68.769 153.6 153.6 153.6s153.6-68.769 153.6-153.6c0-84.831-68.769-153.6-153.6-153.6v0c-0.012 0-0.027 0-0.041 0-84.808 0-153.559 68.751-153.559 153.559 0 0.014 0 0.029 0 0.043v-0.002z" />
<glyph unicode="&#xe92e;" glyph-name="circle-right" d="M658.293 638.207h-409.62v-58.517h409.62zM658.293 492.067h-409.62v-58.671h409.62zM658.293 287.103v58.517h-409.62v-58.517zM746.069 608.948l131.638-131.638-131.638-131.689zM921.537 448.010c0 225.814-183.713 409.528-409.528 409.528-35.196 0-65.415-4.261-77.139-7.125l-0.57-0.139-0.572-0.133c-96.822-22.477-179.792-73.058-239.94-146.274-59.733-72.71-91.306-161.184-91.306-255.857 0-225.814 183.713-409.528 409.528-409.528s409.528 183.713 409.528 409.528zM1024.019 448.010c0-282.775-229.235-512.010-512.010-512.010s-512.010 229.235-512.010 512.010c0 242.619 168.751 445.824 410.553 501.958 22.224 5.428 61.301 10.051 101.457 10.051 282.775 0 512.010-229.235 512.010-512.010z" />
<glyph unicode="&#xe92f;" glyph-name="circle-munis" d="M245.76 509.44h532.48v-81.92h-532.48v81.92zM81.92 448c0-237.147 192.933-430.080 430.080-430.080s430.080 192.933 430.080 430.080c0 237.147-192.933 430.080-430.080 430.080s-430.080-192.933-430.080-430.080zM0 448c0 282.77 229.23 512 512 512s512-229.23 512-512c0-282.77-229.23-512-512-512s-512 229.23-512 512z" />
<glyph unicode="&#xe930;" glyph-name="circle-plus" d="M778.24 409.948h-228.188v-228.188h-76.104v228.188h-228.188v76.104h228.188v228.188h76.063v-228.188h228.229zM81.92 448c0-237.147 192.933-430.080 430.080-430.080s430.080 192.933 430.080 430.080c0 237.147-192.933 430.080-430.080 430.080s-430.080-192.933-430.080-430.080zM0 448c0 282.77 229.23 512 512 512s512-229.23 512-512c0-282.77-229.23-512-512-512s-512 229.23-512 512z" />
<glyph unicode="&#xe931;" glyph-name="circle-right-angle" d="M760.686 462.629l-292.571 292.571-68.754-68.754 223.32-223.817-223.32-223.817 68.754-68.754zM87.771 448c0-113.316 44.127-219.849 124.254-299.975s186.659-124.254 299.975-124.254c113.316 0 219.849 44.127 299.975 124.254s124.254 186.659 124.254 299.975c0 113.316-44.127 219.849-124.254 299.975s-186.659 124.254-299.975 124.254c-113.316 0-219.849-44.127-299.975-124.254s-124.254-186.659-124.254-299.975zM0 448c0 282.77 229.23 512 512 512s512-229.23 512-512c0-282.77-229.23-512-512-512s-512 229.23-512 512z" />
<glyph unicode="&#xe932;" glyph-name="circle-left-angle" d="M292.571 433.371l292.571-292.571 68.754 68.754-223.32 223.817 223.32 223.817-68.754 68.754zM936.229 448c0 113.316-44.127 219.849-124.254 299.975s-186.659 124.254-299.975 124.254c-113.316 0-219.849-44.127-299.975-124.254s-124.254-186.659-124.254-299.975c0-113.316 44.127-219.849 124.254-299.975s186.659-124.254 299.975-124.254c113.316 0 219.849 44.127 299.975 124.254s124.254 186.659 124.254 299.975zM1024 448c0-282.77-229.23-512-512-512s-512 229.23-512 512c0 282.77 229.23 512 512 512s512-229.23 512-512z" />
<glyph unicode="&#xe933;" glyph-name="circle-left" d="M365.714 287.086h409.6v58.514h-409.6zM365.714 433.371h409.6v58.514h-409.6zM365.714 638.171v-58.514h409.6v58.514zM277.943 316.343l-131.657 131.657 131.657 131.657zM87.771 448c0-113.316 44.127-219.849 124.254-299.975s186.659-124.254 299.975-124.254c113.316 0 219.849 44.127 299.975 124.254s124.254 186.659 124.254 299.975c0 113.316-44.127 219.849-124.254 299.975s-186.659 124.254-299.975 124.254c-113.316 0-219.849-44.127-299.975-124.254s-124.254-186.659-124.254-299.975zM0 448c0 282.77 229.23 512 512 512s512-229.23 512-512c0-282.77-229.23-512-512-512s-512 229.23-512 512z" />
<glyph unicode="&#xe934;" glyph-name="search-2" d="M731.847 315.975h-46.253l-16.393 15.808c57.13 66.262 91.923 153.187 91.923 248.239 0 210.501-170.645 381.146-381.146 381.146s-381.146-170.645-381.146-381.146c0-210.501 170.645-381.146 381.146-381.146 95.051 0 181.976 34.794 248.733 92.34l-0.494-0.417 15.808-16.393v-46.253l292.739-292.153 87.236 87.236zM380.56 315.975c-145.508 0-263.465 117.957-263.465 263.465s117.957 263.465 263.465 263.465c145.508 0 263.465-117.957 263.465-263.465v0c0-0.105 0-0.228 0-0.352 0-145.314-117.8-263.114-263.114-263.114-0.124 0-0.247 0-0.371 0h0.019z" />
<glyph unicode="&#xe935;" glyph-name="more" d="M341.333 960v-136.533h449.877l-791.211-791.211 96.256-96.256 791.211 791.211v-449.877h136.533v682.667z" />
<glyph unicode="&#xe936;" glyph-name="edit" d="M509.706 251.392l66.601 66.601-87.245 87.245-66.601-66.601v-32.154h55.091v-55.091zM762.266 664.678c-2.188 2.72-5.515 4.446-9.246 4.446-3.983 0-7.507-1.967-9.652-4.983l-0.025-0.036-200.704-200.704c-2.854-2.405-4.655-5.982-4.655-9.98 0-7.194 5.832-13.025 13.025-13.025 3.997 0 7.574 1.801 9.964 4.635l0.016 0.020 200.704 200.704c3.068 2.169 5.047 5.701 5.047 9.696 0 3.743-1.738 7.081-4.45 9.25l-0.024 0.018zM808.182 323.727v-109.199c-0.163-91.235-74.079-165.152-165.299-165.315h-477.569c-0.71-0.011-1.548-0.018-2.387-0.018-44.893 0-85.447 18.581-114.39 48.472l-0.041 0.043c-29.934 28.984-48.515 69.538-48.515 114.431 0 0.839 0.006 1.677 0.019 2.513l-0.002-0.126v477.757c-0.011 0.71-0.018 1.548-0.018 2.387 0 44.893 18.581 85.447 48.472 114.39l0.043 0.041c28.984 29.934 69.538 48.515 114.431 48.515 0.839 0 1.677-0.006 2.513-0.019l-0.126 0.002h477.757c0.425 0.004 0.926 0.006 1.429 0.006 23.842 0 46.45-5.286 66.716-14.749l-0.97 0.407c5.402-2.357 9.32-7.225 10.308-13.087l0.014-0.102c0.245-1.11 0.386-2.385 0.386-3.693 0-5.087-2.127-9.677-5.54-12.93l-28.147-28.147c-3.090-3.458-7.562-5.624-12.541-5.624-2.086 0-4.082 0.38-5.925 1.075l0.116-0.038c-7.742 2.147-16.639 3.4-25.822 3.441h-477.781c-0.377 0.006-0.822 0.009-1.268 0.009-24.962 0-47.509-10.343-63.589-26.977l-0.024-0.025c-16.659-16.103-27.002-38.65-27.002-63.613 0-0.446 0.003-0.891 0.010-1.335l-0.001 0.067v-477.757c-0.006-0.377-0.009-0.822-0.009-1.268 0-24.962 10.343-47.509 26.977-63.589l0.025-0.024c16.103-16.659 38.65-27.002 63.613-27.002 0.446 0 0.891 0.003 1.335 0.010l-0.067-0.001h477.757c50.652 0.163 91.67 41.18 91.832 91.817v72.35c-0.002 0.102-0.003 0.223-0.003 0.344 0 4.807 1.977 9.153 5.161 12.269l36.867 36.867c3.169 3.506 7.733 5.699 12.809 5.699 2.635 0 5.132-0.591 7.366-1.648l-0.105 0.045c6.577-2.318 11.207-8.479 11.207-15.721 0-0.32-0.009-0.637-0.027-0.953l0.002 0.044zM753.091 747.336l165.315-165.315-385.925-385.638h-165.11v165.315zM1007.944 671.56l-52.797-52.797-165.315 165.315 52.797 52.797c10.013 9.938 23.807 16.080 39.035 16.080s29.021-6.142 39.038-16.084l87.242-87.242c9.938-10.013 16.080-23.807 16.080-39.035s-6.142-29.021-16.084-39.038l0.003 0.003z" />
<glyph unicode="&#xe937;" glyph-name="pencil" d="M245.35 22.528l61.44 61.44-158.72 158.72-61.44-61.44v-72.346h86.528v-86.528zM598.63 649.779c0.080 0.545 0.126 1.175 0.126 1.815 0 7.267-5.891 13.158-13.158 13.158-0.64 0-1.27-0.046-1.886-0.134l0.070 0.008c-0.080 0.001-0.174 0.002-0.268 0.002-4.388 0-8.354-1.804-11.198-4.71l-366.339-366.339c-2.909-2.847-4.713-6.813-4.713-11.201 0-0.094 0.001-0.188 0.002-0.282v0.014c-0.080-0.545-0.126-1.175-0.126-1.815 0-7.267 5.891-13.158 13.158-13.158 0.64 0 1.27 0.046 1.886 0.134l-0.070-0.008c0.080-0.001 0.174-0.002 0.268-0.002 4.388 0 8.354 1.804 11.198 4.71l366.339 366.339c3.123 2.85 5.085 6.927 5.12 11.463v0.006zM562.125 779.571l281.19-281.19-562.125-562.381h-281.19v281.19zM1024 714.65c0.009-0.459 0.014-1 0.014-1.542 0-23.233-9.57-44.231-24.983-59.267l-112.196-112.196-281.19 281.19 112.179 111.514c14.709 15.784 35.618 25.625 58.825 25.625 0.703 0 1.405-0.009 2.104-0.027l-0.103 0.002c0.324 0.005 0.707 0.007 1.091 0.007 23.68 0 45.069-9.808 60.327-25.584l0.022-0.023 158.72-158.157c15.568-15.651 25.192-37.228 25.192-61.054 0-0.172-0.001-0.344-0.002-0.515v0.026z" />
<glyph unicode="&#xe938;" glyph-name="cog" d="M904.141 397.824c2.135 14.947 3.433 32.336 3.583 49.999l0.001 0.177c-0.151 17.84-1.449 35.229-3.823 52.273l0.239-2.097 108.032 84.48c5.859 4.731 9.576 11.914 9.576 19.965 0 4.714-1.274 9.131-3.497 12.924l0.065-0.121-102.4 177.152c-4.495 7.762-12.761 12.9-22.228 12.9-3.235 0-6.33-0.6-9.18-1.695l0.175 0.059-127.488-51.2c-24.972 19.527-53.484 36.367-84.068 49.256l-2.46 0.92-19.456 135.68c-1.767 12.221-12.17 21.506-24.742 21.506-0.122 0-0.243-0.001-0.364-0.003h-204.782c-0.103 0.002-0.224 0.002-0.346 0.002-12.572 0-22.975-9.285-24.726-21.372l-0.016-0.135-19.456-135.68c-33.033-14.057-61.522-30.876-87.448-50.857l0.92 0.681-127.488 51.2c-2.748 1.131-5.938 1.788-9.281 1.788-9.425 0-17.631-5.218-21.886-12.923l-0.065-0.129-102.4-177.152c-2.224-3.684-3.54-8.134-3.54-12.891 0-8.047 3.765-15.214 9.63-19.836l0.054-0.041 108.032-84.48c-2.115-14.927-3.412-32.315-3.582-49.973l-0.002-0.203c0.172-17.861 1.469-35.249 3.824-52.299l-0.24 2.123-108.032-84.48c-5.859-4.731-9.576-11.914-9.576-19.965 0-4.714 1.274-9.131 3.497-12.924l-0.065 0.121 102.4-177.152c4.495-7.762 12.761-12.9 22.228-12.9 3.235 0 6.33 0.6 9.18 1.695l-0.175-0.059 127.488 51.2c24.972-19.527 53.484-36.367 84.068-49.256l2.46-0.92 19.456-135.68c1.767-12.221 12.17-21.506 24.742-21.506 0.122 0 0.243 0.001 0.364 0.003h204.782c0.103-0.002 0.224-0.002 0.346-0.002 12.572 0 22.975 9.285 24.726 21.372l0.016 0.135 19.456 135.68c33.033 14.057 61.522 30.876 87.448 50.857l-0.92-0.681 127.488-51.2c2.748-1.131 5.938-1.788 9.281-1.788 9.425 0 17.631 5.218 21.886 12.923l0.065 0.129 102.4 177.152c2.157 3.673 3.432 8.089 3.432 12.803 0 8.051-3.716 15.234-9.527 19.927l-0.049 0.038zM523.725 268.8c-98.969 0-179.2 80.231-179.2 179.2s80.231 179.2 179.2 179.2c98.969 0 179.2-80.231 179.2-179.2v0c0-98.969-80.231-179.2-179.2-179.2v0z" />
<glyph unicode="&#xe939;" glyph-name="search" d="M731.847 315.975h-46.253l-16.393 15.808c57.13 66.262 91.923 153.187 91.923 248.239 0 210.501-170.645 381.146-381.146 381.146s-381.146-170.645-381.146-381.146c0-210.501 170.645-381.146 381.146-381.146 95.051 0 181.976 34.794 248.733 92.34l-0.494-0.417 15.808-16.393v-46.253l292.739-292.153 87.236 87.236zM380.56 315.975c-145.508 0-263.465 117.957-263.465 263.465s117.957 263.465 263.465 263.465c145.508 0 263.465-117.957 263.465-263.465v0c0-0.105 0-0.228 0-0.352 0-145.314-117.8-263.114-263.114-263.114-0.124 0-0.247 0-0.371 0h0.019z" />
<glyph unicode="&#xe93a;" glyph-name="back" d="M398.222 647.111v227.556l-398.222-398.222 398.222-398.222v233.244c284.444 0 483.556-91.022 625.778-290.133-56.889 284.444-227.556 568.889-625.778 625.778z" />
<glyph unicode="&#xe93b;" glyph-name="chat" d="M972.8 755.2h-102.4v-460.8h-665.6v-102.4c0-28.277 22.923-51.2 51.2-51.2v0h563.2l204.8-204.8v768c0 28.277-22.923 51.2-51.2 51.2v0zM768 448v460.8c0 28.277-22.923 51.2-51.2 51.2v0h-665.6c-28.277 0-51.2-22.923-51.2-51.2v0-716.8l204.8 204.8h512c28.277 0 51.2 22.923 51.2 51.2v0z" />
<glyph unicode="&#xe93c;" glyph-name="alarm" d="M512-38.4c56.484 0.174 102.226 45.916 102.4 102.383v0.017h-204.8c0-56.554 45.846-102.4 102.4-102.4v0zM819.2 268.8v256c0 157.184-83.968 288.768-230.4 323.584v34.816c0 42.415-34.385 76.8-76.8 76.8s-76.8-34.385-76.8-76.8v0-34.816c-146.944-34.816-230.4-165.888-230.4-323.584v-256l-102.4-102.4v-51.2h819.2v51.2z" />
<glyph unicode="&#xe93d;" glyph-name="attention" d="M1024 449.862l-113.571 129.396 15.825 171.287-168.029 38.167-87.971 148.015-158.255-67.956-158.255 67.956-87.971-148.015-168.029-37.702 15.825-171.287-113.571-129.862 113.571-129.396-15.825-171.753 168.029-38.167 87.971-148.015 158.255 68.422 158.255-67.956 87.971 148.015 168.029 38.167-15.825 171.287zM558.545 217.135h-93.091v93.091h93.091zM558.545 403.316h-93.091v279.273h93.091z" />
<glyph unicode="&#xe93e;" glyph-name="pen" d="M0 149.298v-213.298h213.298l629.086 629.086-213.298 213.298zM1007.334 730.037c10.222 10.281 16.54 24.453 16.54 40.1s-6.318 29.819-16.543 40.103l-133.095 133.095c-10.281 10.222-24.453 16.54-40.1 16.54s-29.819-6.318-40.103-16.543l-104.086-104.086 213.298-213.298 104.089 104.089z" />
<glyph unicode="&#xe93f;" glyph-name="home" d="M409.6 12.8v307.2h204.8v-307.2h256v409.6h153.6l-512 460.8-512-460.8h153.6v-409.6z" />
<glyph unicode="&#xe940;" glyph-name="time" d="M585.143 886.857c-242.374 0-438.857-196.483-438.857-438.857v0h-146.286l189.684-189.684 3.413-6.827 196.998 196.51h-146.286c-0.003 0.487-0.004 1.064-0.004 1.641 0 189.429 153.562 342.991 342.991 342.991s342.991-153.562 342.991-342.991c0-189.429-153.562-342.991-342.991-342.991-94.718 0-180.468 38.393-242.538 100.466v0l-69.242-69.242c79.437-79.533 189.229-128.731 310.512-128.731 242.374 0 438.857 196.483 438.857 438.857s-196.483 438.857-438.857 438.857c-0.136 0-0.271 0-0.407 0h0.021zM536.381 643.048v-243.81l208.701-123.855 35.109 59.002-170.667 101.425v207.238z" />
<glyph unicode="&#xe941;" glyph-name="star" d="M512 152.576l316.416-190.976-83.968 359.936 279.552 242.176-368.128 31.232-143.872 339.456-143.872-339.456-368.128-31.232 279.552-242.176-83.968-359.936z" />
<glyph unicode="&#xe942;" glyph-name="folder" d="M409.6 857.6h-307.2c-56.333-0.291-101.888-46.025-101.888-102.399 0 0 0-0.001 0-0.001v0l-0.512-614.4c0.174-56.484 45.916-102.226 102.383-102.4h819.217c56.484 0.174 102.226 45.916 102.4 102.383v512.017c-0.174 56.484-45.916 102.226-102.383 102.4h-409.617z" />
<glyph unicode="&#xe943;" glyph-name="email" d="M921.6 857.6h-819.2c-56.333-0.291-101.888-46.025-101.888-102.399 0 0 0-0.001 0-0.001v0l-0.512-614.4c0.174-56.484 45.916-102.226 102.383-102.4h819.217c56.484 0.174 102.226 45.916 102.4 102.383v614.417c-0.174 56.484-45.916 102.226-102.383 102.4h-0.017zM921.6 652.8l-409.6-256-409.6 256v102.4l409.6-256 409.6 256z" />
<glyph unicode="&#xe944;" glyph-name="expand" d="M341.333 960v-136.533h449.877l-791.211-791.211 96.256-96.256 791.211 791.211v-449.877h136.533v682.667z" />
<glyph unicode="&#xe945;" glyph-name="wrench" horiz-adv-x="1030" d="M1016.706 123.032l-425.498 425.498c12.747 32.058 20.138 69.205 20.138 108.079 0 84.045-34.55 160.021-90.221 214.499l-0.054 0.052c-55.779 55.012-132.43 88.986-217.015 88.986-46.785 0-91.143-10.394-130.889-28.998l1.896 0.797 201.059-201.059-140.274-140.274-205.735 201.059c-18.794-38.19-29.787-83.129-29.787-130.636 0-84.358 34.662-160.621 90.521-215.322l0.052-0.051c54.53-55.725 130.506-90.275 214.551-90.275 38.874 0 76.021 7.391 110.113 20.846l-2.034-0.707 425.498-425.498c8.251-8.645 19.863-14.020 32.731-14.020s24.48 5.375 32.714 14.003l0.017 0.018 107.543 107.543c11.021 7.697 18.14 20.321 18.14 34.608 0 12.177-5.172 23.145-13.438 30.829l-0.026 0.024z" />
<glyph unicode="&#xe946;" glyph-name="board-checked" d="M870.4 857.6h-214.016c-21.518 60.148-78.015 102.41-144.384 102.41s-122.866-42.262-144.050-101.343l-0.334-1.068h-214.016c-56.484-0.174-102.226-45.916-102.4-102.383v-716.817c0.174-56.484 45.916-102.226 102.383-102.4h716.817c56.484 0.174 102.226 45.916 102.4 102.383v716.817c-0.174 56.484-45.916 102.226-102.383 102.4h-0.017zM512 857.6c28.277 0 51.2-22.923 51.2-51.2s-22.923-51.2-51.2-51.2c-28.277 0-51.2 22.923-51.2 51.2v0c0 28.277 22.923 51.2 51.2 51.2v0zM409.6 140.8l-204.8 204.8 72.192 72.192 132.608-132.096 337.408 337.408 72.192-72.704z" />
<glyph unicode="&#xe947;" glyph-name="board" d="M870.4 857.6h-214.016c-21.518 60.148-78.015 102.41-144.384 102.41s-122.866-42.262-144.050-101.343l-0.334-1.068h-214.016c-56.484-0.174-102.226-45.916-102.4-102.383v-716.817c0.174-56.484 45.916-102.226 102.383-102.4h716.817c56.484 0.174 102.226 45.916 102.4 102.383v716.817c-0.174 56.484-45.916 102.226-102.383 102.4h-0.017zM512 857.6c28.277 0 51.2-22.923 51.2-51.2s-22.923-51.2-51.2-51.2c-28.277 0-51.2 22.923-51.2 51.2v0c0 28.277 22.923 51.2 51.2 51.2v0zM614.4 140.8h-358.4v102.4h358.4zM768 345.6h-512v102.4h512zM768 550.4h-512v102.4h512z" />
<glyph unicode="&#xe948;" glyph-name="plus" d="M1024 374.857h-438.857v-438.857h-146.286v438.857h-438.857v146.286h438.857v438.857h146.286v-438.857h438.857z" />
<glyph unicode="&#xe949;" glyph-name="trash" horiz-adv-x="944" d="M472.072 473.878c21.83-0.222 39.468-17.86 39.69-39.669v-298.172c0-22.096-17.912-40.007-40.007-40.007s-40.007 17.912-40.007 40.007v0 297.833c0.045 22.105 17.975 40.008 40.087 40.008 0.084 0 0.167 0 0.251-0.001h-0.013zM604.081 435.458l-11.986-297.833c-0.017-0.437-0.027-0.95-0.027-1.466 0-21.578 17.016-39.183 38.361-40.126l0.085-0.003h1.588c0.006 0 0.013 0 0.020 0 21.474 0 38.964 17.053 39.668 38.355l0.002 0.064 11.986 297.833c0.020 0.474 0.031 1.029 0.031 1.588 0 22.113-17.926 40.039-40.039 40.039-21.555 0-39.131-17.032-40.005-38.372l-0.003-0.079zM298.468 473.878c-21.431-0.947-38.447-18.551-38.447-40.129 0-0.515 0.010-1.029 0.029-1.539l-0.002 0.074 11.986-297.833c0.706-21.367 18.196-38.42 39.67-38.42 0.007 0 0.014 0 0.021 0h1.586c21.431 0.947 38.447 18.551 38.447 40.129 0 0.515-0.010 1.029-0.029 1.539l0.002-0.074-11.669 297.913c-1.076 21.41-18.697 38.362-40.277 38.362-0.463 0-0.925-0.008-1.385-0.023l0.067 0.002zM944.144 753.612c-0.222-21.83-17.86-39.468-39.669-39.69h-864.785c-22.096 0-40.007 17.912-40.007 40.007s17.912 40.007 40.007 40.007v0h242.347v46.040c0.045 66.268 53.754 119.977 120.018 120.022h140.030c66.268-0.045 119.977-53.754 120.022-120.018v-46.044h242.029c22.105-0.045 40.008-17.975 40.008-40.087 0-0.084 0-0.167-0.001-0.251v0.013zM362.051 793.302h220.041v46.040c-0.222 21.83-17.86 39.468-39.669 39.69h-140.365c-21.83-0.222-39.468-17.86-39.69-39.669v-0.021zM812.135 633.273h-680.127c-0.042 0-0.091 0-0.14 0-21.92 0-39.69-17.77-39.69-39.69 0-1.174 0.051-2.335 0.151-3.483l-0.010 0.149 38.023-508.904v-0.635c7.988-81.447 76.061-144.585 158.906-144.709h365.16c0.382-0.003 0.834-0.005 1.286-0.005 82.624 0 150.506 63.117 158.061 143.766l0.048 0.632c0.104 1.082 0.164 2.34 0.164 3.612 0 22.011-17.843 39.854-39.854 39.854-20.739 0-37.778-15.841-39.678-36.083l-0.012-0.159c-4.168-40.291-37.937-71.443-78.982-71.443-0.14 0-0.28 0-0.419 0.001h-365.363c-0.091 0-0.2-0.001-0.308-0.001-41.381 0-75.367 31.665-79.049 72.086l-0.023 0.309-35.007 465.325h593.841l-20.798-282.989c-0.067-0.867-0.105-1.878-0.105-2.897 0-22.088 17.906-39.993 39.993-39.993 21.068 0 38.331 16.291 39.88 36.963l0.008 0.133 23.814 326.092c0.065 0.86 0.103 1.863 0.103 2.874 0 10.582-4.084 20.211-10.763 27.395l0.023-0.025c-7.254 7.682-17.508 12.463-28.879 12.463-0.089 0-0.178 0-0.267-0.001h0.014z" />
</font>
</defs>
</svg>
