<svg xmlns="http://www.w3.org/2000/svg" viewBox="0 0 25 25">
  <defs>
    <style>
      .cls-1, .cls-4 {
        fill: #555555;
      }

      .cls-2 {
        fill: none;
      }

      .cls-3, .cls-4 {
        stroke: none;
      }
    </style>
  </defs>
  <g id="Group_140" data-name="Group 140" transform="translate(-1374 6525)">
    <g id="ic_add_black_24px" transform="translate(1375 -6524)">
      <path id="Path_86" data-name="Path 86" class="cls-1" d="M18,12.429H12.429V18H10.571V12.429H5V10.571h5.571V5h1.857v5.571H18Z"/>
    </g>
    <g id="Path_94" data-name="Path 94" class="cls-2" transform="translate(1399 -6525) rotate(90)">
      <path class="cls-3" d="M12.5,0A12.5,12.5,0,1,1,0,12.5,12.5,12.5,0,0,1,12.5,0Z"/>
      <path class="cls-4" d="M 12.5 23 C 18.28972053527832 23 23 18.28972053527832 23 12.5 C 23 6.710279941558838 18.28972053527832 2 12.5 2 C 6.710279941558838 2 2 6.710279941558838 2 12.5 C 2 18.28972053527832 6.710279941558838 23 12.5 23 M 12.5 25 C 5.596439838409424 25 -1.77635683940025e-15 19.40356063842773 -1.77635683940025e-15 12.5 C -1.77635683940025e-15 5.596439838409424 5.596439838409424 -1.77635683940025e-15 12.5 -1.77635683940025e-15 C 19.40356063842773 -1.77635683940025e-15 25 5.596439838409424 25 12.5 C 25 19.40356063842773 19.40356063842773 25 12.5 25 Z"/>
    </g>
  </g>
</svg>
