<svg xmlns="http://www.w3.org/2000/svg" viewBox="0 0 25 19.731">
  <path id="edit" d="M12.444,142.8l1.626-1.626-2.13-2.13-1.626,1.626v.785h1.345V142.8Zm6.166-10.09a.289.289,0,0,0-.462.014l-4.9,4.9a.318.318,0,1,0,.448.448l4.9-4.9A.289.289,0,0,0,18.61,132.709Zm1.121,8.324V143.7a4.043,4.043,0,0,1-4.036,4.036H4.036a3.887,3.887,0,0,1-2.852-1.184A3.887,3.887,0,0,1,0,143.7V132.036a3.887,3.887,0,0,1,1.184-2.852A3.887,3.887,0,0,1,4.036,128H15.7a3.854,3.854,0,0,1,1.64.35.425.425,0,0,1,.252.322.436.436,0,0,1-.126.406l-.687.687a.41.41,0,0,1-.448.112,2.492,2.492,0,0,0-.631-.084H4.036a2.159,2.159,0,0,0-1.584.659,2.159,2.159,0,0,0-.659,1.584V143.7a2.159,2.159,0,0,0,.659,1.584,2.159,2.159,0,0,0,1.584.659H15.7a2.249,2.249,0,0,0,2.242-2.242v-1.766a.419.419,0,0,1,.126-.308l.9-.9a.421.421,0,0,1,.49-.1A.406.406,0,0,1,19.731,141.033Zm-1.345-10.342,4.036,4.036L13,144.143H8.969v-4.036Zm6.222,1.85-1.289,1.289-4.036-4.036,1.289-1.289a1.353,1.353,0,0,1,1.906,0l2.13,2.13a1.353,1.353,0,0,1,0,1.906Z" transform="translate(0 -128)"/>
</svg>
