<svg xmlns="http://www.w3.org/2000/svg" viewBox="0 0 20 18.462">
  <defs>
  </defs>
  <path id="print" class="cls-1" d="M68.615,144.923H79.385v-3.077H68.615Zm0-7.692H79.385v-4.615H77.462a1.149,1.149,0,0,1-1.154-1.154v-1.923H68.615ZM82.462,138a.78.78,0,1,0-.228.541A.739.739,0,0,0,82.462,138ZM84,138v5a.39.39,0,0,1-.385.385H80.923v1.923a1.149,1.149,0,0,1-1.154,1.154H68.231a1.149,1.149,0,0,1-1.154-1.154v-1.923H64.385A.39.39,0,0,1,64,143v-5a2.319,2.319,0,0,1,2.308-2.308h.769v-6.538A1.149,1.149,0,0,1,68.231,128h8.077a3.2,3.2,0,0,1,1.971.817l1.827,1.827a3.2,3.2,0,0,1,.817,1.971v3.077h.769A2.319,2.319,0,0,1,84,138Z" transform="translate(-64 -128)"/>
</svg>
