<svg xmlns="http://www.w3.org/2000/svg" viewBox="0 0 18.687 22.009">
  <defs>
  </defs>
  <path id="ico_quotation" class="cls-1" d="M18.611,2.2H14.25a3.02,3.02,0,0,0-5.814,0H4.076A2.148,2.148,0,0,0,2,4.4V19.808a2.148,2.148,0,0,0,2.076,2.2H18.611a2.148,2.148,0,0,0,2.076-2.2V4.4A2.148,2.148,0,0,0,18.611,2.2Zm-7.267,0a1.074,1.074,0,0,1,1.038,1.1,1.074,1.074,0,0,1-1.038,1.1,1.011,1.011,0,0,1-1.038-1.1A1.011,1.011,0,0,1,11.343,2.2ZM9.682,14.966a2.265,2.265,0,0,0,.1.88,2.437,2.437,0,0,0,.311.55.771.771,0,0,0,.415.22h.311V13.976c-.415-.11-.727-.22-1.142-.33a4.145,4.145,0,0,1-.934-.55,1.706,1.706,0,0,1-.623-.88,2.508,2.508,0,0,1-.208-1.321,4.009,4.009,0,0,1,.1-.99,4.18,4.18,0,0,1,.623-1.1,2.8,2.8,0,0,1,.623-.55l.623-.33a1.25,1.25,0,0,1,.623-.11.891.891,0,0,0,.519-.11V6.6h.831v1.21A4.192,4.192,0,0,1,13,8.033a1.758,1.758,0,0,1,1.038.77,1.918,1.918,0,0,1,.415.55,1.2,1.2,0,0,1,.208.55c0,.22.1.33.1.55v.44H12.9c0-.33,0-.55-.1-.66-.1-.22-.1-.33-.208-.44s-.208-.22-.311-.22-.311-.11-.415-.11V12.1c.415.11.831.22,1.142.33a4.746,4.746,0,0,1,1.038.55,2.921,2.921,0,0,1,.727.88,2.457,2.457,0,0,1,.311,1.321,2.56,2.56,0,0,1-.1.88l-.311.66a1.918,1.918,0,0,1-.415.55c-.1.11-.311.33-.415.33a3.135,3.135,0,0,1-1.038.55,2.72,2.72,0,0,1-.934.11v1.541h-.727V18.267a2.72,2.72,0,0,1-.934-.11,6.332,6.332,0,0,1-.727-.22c-.208-.11-.311-.22-.519-.33s-.208-.22-.311-.22a2.616,2.616,0,0,1-.623-.99,5.827,5.827,0,0,1-.208-1.321H9.682Zm1.35-5.5a.992.992,0,0,0-.831.33,1.293,1.293,0,0,0-.311.88.865.865,0,0,0,.1.55c.1.11.1.22.208.33s.208.22.311.22a.6.6,0,0,0,.415.11V9.464Zm.623,7.263a1.334,1.334,0,0,0,.831-.33,1.293,1.293,0,0,0,.311-.88,1.028,1.028,0,0,0-.311-.77,1.907,1.907,0,0,0-.934-.44v2.421Z" transform="translate(-2 0)"/>
</svg>
