<svg xmlns="http://www.w3.org/2000/svg" viewBox="0 0 11.895 12.9">
  <defs>
  </defs>
  <path id="Path_163" data-name="Path 163" class="cls-1" d="M5.947,6.124a.505.505,0,0,1,.5.5V10.38a.5.5,0,0,1-1.008,0V6.628A.505.505,0,0,1,5.947,6.124Zm1.663.484L7.459,10.36a.506.506,0,0,0,.484.524h.02a.5.5,0,0,0,.5-.484l.151-3.752a.5.5,0,1,0-1.008-.04ZM3.76,6.124a.506.506,0,0,0-.484.524L3.427,10.4a.5.5,0,0,0,.5.484h.02a.506.506,0,0,0,.484-.524L4.284,6.607A.508.508,0,0,0,3.76,6.124ZM11.894,2.6a.505.505,0,0,1-.5.5H.5a.5.5,0,0,1,0-1.008H3.553v-.58A1.513,1.513,0,0,1,5.065,0H6.829A1.513,1.513,0,0,1,8.341,1.512v.58H11.39A.505.505,0,0,1,11.894,2.6Zm-7.333-.5H7.333v-.58a.505.505,0,0,0-.5-.5H5.065a.505.505,0,0,0-.5.5Zm5.67,2.016H1.663a.5.5,0,0,0-.5.542l.479,6.411v.008A2.014,2.014,0,0,0,3.644,12.9h4.6a2,2,0,0,0,2.008-1.819.5.5,0,1,0-1-.091,1,1,0,0,1-1,.9H3.649a1,1,0,0,1-1-.912L2.208,5.116H9.689L9.427,8.681a.5.5,0,0,0,1.005.073l.3-4.108a.507.507,0,0,0-.134-.381A.5.5,0,0,0,10.231,4.108Z" transform="translate(0)"/>
</svg>
