<svg xmlns="http://www.w3.org/2000/svg" viewBox="0 0 35 35">
  <defs>
    <style>
      .cls-1, .cls-4 {
        fill: #555555;
      }

      .cls-2 {
        fill: none;
      }

      .cls-3, .cls-4 {
        stroke: none;
      }
    </style>
  </defs>
  <g id="Group_137" data-name="Group 137" transform="translate(-1275 6346)">
    <g id="Group_76" data-name="Group 76" transform="translate(-26.5 29)">
      <path id="ico_menu" class="cls-1" d="M3,18H17V16H3Zm0-5H17V11H3ZM3,6V8H17V6Z" transform="translate(1311 -6370)"/>
      <path id="ico_up" class="cls-1" d="M7,13.5,11.5,9,16,13.5Z" transform="translate(1297.5 -6346) rotate(-90)"/>
    </g>
    <g id="Path_92" data-name="Path 92" class="cls-2" transform="translate(1310 -6346) rotate(90)">
      <path class="cls-3" d="M17.5,0A17.5,17.5,0,1,1,0,17.5,17.5,17.5,0,0,1,17.5,0Z"/>
      <path class="cls-4" d="M 17.5 32 C 21.37309074401855 32 25.01436042785645 30.49173927307129 27.75304985046387 27.75304985046387 C 30.49173927307129 25.01436042785645 32 21.37309074401855 32 17.5 C 32 13.62691020965576 30.49173927307129 9.985639572143555 27.75304985046387 7.246950149536133 C 25.01436042785645 4.508259773254395 21.37309074401855 3 17.5 3 C 13.62691020965576 3 9.985639572143555 4.508259773254395 7.246950149536133 7.246950149536133 C 4.508259773254395 9.985639572143555 3 13.62691020965576 3 17.5 C 3 21.37309074401855 4.508259773254395 25.01436042785645 7.246950149536133 27.75304985046387 C 9.985639572143555 30.49173927307129 13.62691020965576 32 17.5 32 M 17.5 35 C 7.835020065307617 35 0 27.16497993469238 0 17.5 C 0 7.835020065307617 7.835020065307617 0 17.5 0 C 27.16497993469238 0 35 7.835020065307617 35 17.5 C 35 27.16497993469238 27.16497993469238 35 17.5 35 Z"/>
    </g>
  </g>
</svg>
