<svg xmlns="http://www.w3.org/2000/svg" viewBox="0 0 17.143 20">
  <path fill="#555555" id="file-pdf-o" d="M144.384,4.241a2.6,2.6,0,0,1,.536.848,2.577,2.577,0,0,1,.223.982V18.929A1.067,1.067,0,0,1,144.071,20h-15A1.067,1.067,0,0,1,128,18.929V1.071a1.033,1.033,0,0,1,.313-.759A1.033,1.033,0,0,1,129.071,0h10a2.577,2.577,0,0,1,.982.223,2.6,2.6,0,0,1,.848.536Zm-4.955-2.723v4.2h4.2a1.219,1.219,0,0,0-.246-.458l-3.493-3.493A1.219,1.219,0,0,0,139.429,1.518Zm4.286,17.054V7.143h-4.643A1.067,1.067,0,0,1,138,6.071V1.429h-8.571V18.571Zm-5.737-6.618a8.491,8.491,0,0,0,.938.625,11.075,11.075,0,0,1,1.306-.078q1.641,0,1.975.547a.539.539,0,0,1,.022.58.032.032,0,0,1-.011.022l-.022.022v.011q-.067.424-.792.424a4.6,4.6,0,0,1-1.283-.223,8.136,8.136,0,0,1-1.451-.592,20.1,20.1,0,0,0-4.375.926q-1.708,2.924-2.7,2.924a.649.649,0,0,1-.312-.078L131,16.931q-.011-.011-.067-.056a.461.461,0,0,1-.067-.4,2.424,2.424,0,0,1,.625-1.021,5.394,5.394,0,0,1,1.473-1.077.163.163,0,0,1,.257.067.064.064,0,0,1,.022.045q.58-.949,1.194-2.2A17.033,17.033,0,0,0,135.6,9.364a9.022,9.022,0,0,1-.34-1.78,4.34,4.34,0,0,1,.073-1.423q.123-.446.469-.446h.246a.471.471,0,0,1,.391.167.891.891,0,0,1,.1.759.242.242,0,0,1-.045.089.29.29,0,0,1,.011.089v.335a14.615,14.615,0,0,1-.156,2.143A5.646,5.646,0,0,0,137.978,11.953Zm-6.429,4.587a4.928,4.928,0,0,0,1.529-1.763,6.363,6.363,0,0,0-.977.938A3.71,3.71,0,0,0,131.549,16.54Zm4.442-10.268a3.318,3.318,0,0,0-.022,1.473q.011-.078.078-.491,0-.033.078-.48a.251.251,0,0,1,.045-.089.032.032,0,0,1-.011-.022.023.023,0,0,0-.006-.017.023.023,0,0,1-.006-.017.643.643,0,0,0-.145-.4.032.032,0,0,1-.011.022Zm-1.384,7.377a16.37,16.37,0,0,1,3.17-.9,1.683,1.683,0,0,1-.145-.106,1.994,1.994,0,0,1-.179-.151,5.912,5.912,0,0,1-1.417-1.964,14.909,14.909,0,0,1-.926,2.2Q134.775,13.348,134.607,13.65Zm7.21-.179a2.671,2.671,0,0,0-1.562-.268,4.221,4.221,0,0,0,1.384.313,1.081,1.081,0,0,0,.2-.011Q141.839,13.493,141.817,13.471Z" transform="translate(-128)"/>
</svg>
