<svg xmlns="http://www.w3.org/2000/svg" viewBox="0 0 17.143 20">
  <path id="file-text-o" d="M144.384,4.241a2.6,2.6,0,0,1,.536.848,2.577,2.577,0,0,1,.223.982V18.929A1.067,1.067,0,0,1,144.071,20h-15A1.067,1.067,0,0,1,128,18.929V1.071a1.033,1.033,0,0,1,.313-.759A1.033,1.033,0,0,1,129.071,0h10a2.577,2.577,0,0,1,.982.223,2.6,2.6,0,0,1,.848.536Zm-4.955-2.723v4.2h4.2a1.219,1.219,0,0,0-.246-.458l-3.493-3.493A1.219,1.219,0,0,0,139.429,1.518Zm4.286,17.054V7.143h-4.643A1.067,1.067,0,0,1,138,6.071V1.429h-8.571V18.571ZM132.286,8.929a.344.344,0,0,1,.357-.357H140.5a.344.344,0,0,1,.357.357v.714A.344.344,0,0,1,140.5,10h-7.857a.344.344,0,0,1-.357-.357Zm8.214,2.5a.344.344,0,0,1,.357.357V12.5a.344.344,0,0,1-.357.357h-7.857a.344.344,0,0,1-.357-.357v-.714a.344.344,0,0,1,.357-.357Zm0,2.857a.344.344,0,0,1,.357.357v.714a.344.344,0,0,1-.357.357h-7.857a.344.344,0,0,1-.357-.357v-.714a.344.344,0,0,1,.357-.357Z" transform="translate(-128)"/>
</svg>
