<svg xmlns="http://www.w3.org/2000/svg" viewBox="0 0 25 19.643">
  <defs>
  </defs>
  <path id="list-ul" class="cls-1" d="M5.357,208.964a2.583,2.583,0,0,1-.781,1.9,2.583,2.583,0,0,1-1.9.781,2.583,2.583,0,0,1-1.9-.781,2.695,2.695,0,0,1,0-3.795,2.583,2.583,0,0,1,1.9-.781,2.583,2.583,0,0,1,1.9.781A2.583,2.583,0,0,1,5.357,208.964Zm0-7.143a2.583,2.583,0,0,1-.781,1.9,2.583,2.583,0,0,1-1.9.781,2.583,2.583,0,0,1-1.9-.781,2.695,2.695,0,0,1,0-3.795,2.583,2.583,0,0,1,1.9-.781,2.583,2.583,0,0,1,1.9.781A2.583,2.583,0,0,1,5.357,201.821ZM25,207.625V210.3a.453.453,0,0,1-.446.446H7.589a.453.453,0,0,1-.446-.446v-2.679a.453.453,0,0,1,.446-.446H24.554a.453.453,0,0,1,.446.446ZM5.357,194.679a2.583,2.583,0,0,1-.781,1.9,2.583,2.583,0,0,1-1.9.781,2.583,2.583,0,0,1-1.9-.781,2.695,2.695,0,0,1,0-3.795,2.583,2.583,0,0,1,1.9-.781,2.583,2.583,0,0,1,1.9.781A2.583,2.583,0,0,1,5.357,194.679ZM25,200.482v2.679a.453.453,0,0,1-.446.446H7.589a.453.453,0,0,1-.446-.446v-2.679a.453.453,0,0,1,.446-.446H24.554a.453.453,0,0,1,.446.446Zm0-7.143v2.679a.453.453,0,0,1-.446.446H7.589a.453.453,0,0,1-.446-.446v-2.679a.453.453,0,0,1,.446-.446H24.554a.453.453,0,0,1,.446.446Z" transform="translate(0 -192)"/>
</svg>
