<svg xmlns="http://www.w3.org/2000/svg" viewBox="0 0 20 20">
  <path id="pencil" d="M132.792,167.31l1.2-1.2-3.1-3.1-1.2,1.2v1.413h1.69v1.69Zm6.9-12.251a.257.257,0,0,0-.29-.29.306.306,0,0,0-.224.092l-7.155,7.155a.306.306,0,0,0-.092.224.257.257,0,0,0,.29.29.306.306,0,0,0,.224-.092l7.155-7.155A.306.306,0,0,0,139.7,155.059Zm-.713-2.535,5.492,5.492L133.492,169H128v-5.492ZM148,153.792a1.617,1.617,0,0,1-.488,1.188l-2.191,2.191-5.492-5.492,2.191-2.178a1.569,1.569,0,0,1,1.188-.5,1.639,1.639,0,0,1,1.2.5l3.1,3.089A1.691,1.691,0,0,1,148,153.792Z" transform="translate(-128 -149)"/>
</svg>
